<svg xmlns="http://www.w3.org/2000/svg" xmlns:xlink="http://www.w3.org/1999/xlink" xmlns:xodm="http://www.corel.com/coreldraw/odm/2003" width="639.999" height="639.999" version="1.1" viewBox="0 0 6666.66 6666.66" xml:space="preserve" style="shape-rendering:geometricPrecision;text-rendering:geometricPrecision;image-rendering:optimizeQuality;fill-rule:evenodd;clip-rule:evenodd"><defs><style type="text/css">.fil0{fill-rule:nonzero}.fil1{fill:#262626}.fil1,.fil5{fill-rule:nonzero}.fil0{fill:#353434}.fil5{fill:#6d6a6a}.fil2,.fil3,.fil4{fill-rule:nonzero}.fil4{fill:#918e8e}.fil2{fill:#bac2cc}.fil3{fill:#dde1e6}</style></defs><g id="Layer_x0020_1"><metadata id="CorelCorpID_0Corel-Layer"/><path d="M4838.97 3473.15c-93.69,0 -169.56,-79.61 -169.56,-177.81 0,-98.17 75.87,-177.78 169.56,-177.78 93.66,0 169.56,79.61 169.56,177.78 0,98.2 -75.91,177.81 -169.56,177.81zm-2926.6 0c-93.66,0 -169.56,-79.61 -169.56,-177.81 0,-98.17 75.9,-177.78 169.56,-177.78 93.64,0 169.56,79.61 169.56,177.78 0,98.2 -75.92,177.81 -169.56,177.81zm3720.3 2128.94l-461.17 -2688.3 -3661.66 0 -451.7 2689.91c-10.9,65.04 -7.44,128.69 8.74,189.51 76.26,288.5 435.34,512.45 876.07,512.45l2805.21 0c534.47,0 948.69,-329.51 884.51,-703.57z" class="fil0"/><path d="M4748.15 6305.66l-2805.21 0c-440.73,0 -799.81,-223.96 -876.07,-512.45 464.04,146.44 1021.31,208.18 1560.37,208.18 935.88,-0.03 1816.74,-186.15 2058.38,-438.35 272.97,-284.98 74.22,-1723.47 -88.29,-2649.24l574.16 0 461.17 2688.3c4.39,25.59 6.54,50.94 6.57,76.01 0.41,341.56 -393.14,627.56 -891.09,627.56zm-78.74 -3010.33l0 0c0,98.2 75.87,177.81 169.56,177.81 93.66,0 169.56,-79.61 169.56,-177.81l0 0c0,-98.17 -75.91,-177.78 -169.56,-177.78 -93.69,0 -169.56,79.61 -169.56,177.78l0 0z" class="fil1"/><path d="M4011.65 3508.99l-1276.81 0c-65.46,0 -120.08,-46.25 -133.01,-107.85 7.42,24.18 28.39,44.78 57.05,57.57l0 0c20.12,9.2 44.04,14.44 69.77,14.44l1220.39 0c71.69,0 129.76,-40.98 129.76,-91.44l0 -53.15c0,-50.46 -58.06,-91.41 -129.76,-91.41l-1216.25 0c0.68,0 1.37,0 2.06,0l1276.81 0c75.09,0 135.91,60.83 135.91,135.91 0,75.09 -60.82,135.94 -135.91,135.94z" class="fil1"/><path d="M4078.78 3328.56l0 53.15c0,50.45 -58.06,91.44 -129.76,91.44l-1220.39 0c-25.72,0 -49.65,-5.24 -69.77,-14.44 -36.1,-16.15 -59.99,-44.6 -59.99,-77l0 -53.15c0,-50.46 58.07,-91.41 129.76,-91.41l1220.39 0c71.69,0 129.76,40.95 129.76,91.41z" class="fil2"/><path d="M2821.31 3473.15l-92.67 0c-25.72,0 -49.65,-5.24 -69.77,-14.44l255.19 -221.56 179.11 0 -271.87 236z" class="fil3"/><polygon points="2974.16 3473.15 2852.43 3473.15 3124.3 3237.15 3245.96 3237.15" class="fil3"/><polygon points="3101.3 3473.15 3019.74 3473.15 3291.65 3237.15 3373.21 3237.15" class="fil3"/><path d="M1912.37 3473.15c-93.66,0 -169.56,-79.61 -169.56,-177.81 0,-98.17 75.9,-177.78 169.56,-177.78 93.64,0 169.56,79.61 169.56,177.78 0,98.2 -75.92,177.81 -169.56,177.81zm0 -391.43c-112.54,0 -203.77,95.65 -203.77,213.62 0,118.02 91.23,213.66 203.77,213.66 112.55,0 203.77,-95.64 203.77,-213.66 0,-117.98 -91.22,-213.62 -203.77,-213.62z" class="fil4"/><path d="M4839.15 3473.15c-93.63,0 -169.56,-79.61 -169.56,-177.81 0,-98.17 75.93,-177.78 169.56,-177.78 93.66,0 169.56,79.61 169.56,177.78 0,98.2 -75.9,177.81 -169.56,177.81zm0 -391.43c-112.55,0 -203.77,95.65 -203.77,213.62 0,118.02 91.22,213.66 203.77,213.66 112.54,0 203.77,-95.64 203.77,-213.66 0,-117.98 -91.23,-213.62 -203.77,-213.62z" class="fil4"/><path d="M2063.39 3151.94c-3.27,14.94 -7,29.28 -11.2,42.83 18.76,28.59 29.74,63.24 29.74,100.56 0,98.2 -75.92,177.81 -169.56,177.81 -93.66,0 -169.56,-79.61 -169.56,-177.81 0,-41.18 13.36,-79.08 35.81,-109.18 -3.85,-13.34 -7.28,-27.33 -10.26,-41.94 -36.93,38.68 -59.76,92.11 -59.76,151.12 0,118.02 91.23,213.66 203.77,213.66 112.55,0 203.77,-95.64 203.77,-213.66 0,-55.17 -19.98,-105.49 -52.75,-143.39z" class="fil4"/><path d="M2012 3151.53c2.76,-12.1 5.23,-24.83 7.36,-38 -31.13,-20.15 -67.75,-31.81 -106.99,-31.81 -35.98,0 -69.76,9.82 -99.11,26.96 2.01,13.03 4.31,25.52 6.89,37.5 26.58,-18.06 58.24,-28.61 92.21,-28.61 37.25,0 71.66,12.63 99.63,33.97z" class="fil4"/><polygon points="1768.36 3144.22 1769.5 3143.12 1768.12 3143.12" class="fil5"/><path d="M1808.74 2913.79l-50.93 0c4.48,-45.9 12.7,-88.73 24.51,-125.46 9.02,24.66 20.54,47.37 34.96,66.26 -3.53,18.71 -6.5,38.48 -8.54,59.2z" class="fil5"/><path d="M2079.41 2993.4c0,56.43 -5.59,110.79 -16.07,158.55 -3.26,14.98 -7.03,29.24 -11.2,42.79 -2.24,7.36 -4.64,14.44 -7.11,21.25 -10.57,28.46 -42.7,115.24 -128.35,115.24 -85.64,0 -117.81,-86.78 -128.38,-115.24 -3.43,-9.44 -6.68,-19.5 -9.65,-29.83 11.63,-15.64 25.62,-29.19 41.5,-40.03 19.44,89.28 55.41,149.21 96.53,149.21 40.29,0 75.68,-57.57 95.31,-143.84 2.72,-12.11 5.18,-24.8 7.32,-38 5.98,-36.78 9.23,-77.37 9.23,-120.1 0,-50.08 -4.48,-97.32 -12.49,-138.81 -4.69,-24.25 -10.48,-46.63 -17.41,-66.43 -20.34,-59.42 -49.55,-96.63 -81.97,-96.63 -32.45,0 -61.65,37.22 -82,96.63 -8.43,-20.87 -15.35,-44.95 -20.43,-71.39 19.83,-30.72 51.76,-61.13 102.43,-61.13 50.65,0 82.57,30.41 102.42,61.13 13.72,21.15 21.65,42.49 25.93,54.12 2.15,5.68 4.06,11.5 5.97,17.52 18.43,57.36 28.4,129.26 28.4,205z" class="fil5"/><path d="M2079.41 2612.6c0,51 -7.42,118.33 -28.4,175.8 -1.91,-6.02 -3.83,-11.84 -5.97,-17.52 -4.28,-11.63 -12.21,-32.97 -25.93,-54.12 6.09,-31.87 9.44,-67.08 9.44,-104.16 0,-142.54 -50.01,-258.12 -111.87,-258.12 -61.83,0 -111.9,115.58 -111.9,258.12 0,37.08 3.36,72.29 9.46,104.16 5.08,26.44 12,50.53 20.43,71.39 20.35,50.83 49.55,82.61 82,82.61 32.43,0 61.63,-31.78 81.97,-82.61 6.93,19.8 12.71,42.18 17.41,66.43 -24.13,31.46 -56.47,52.06 -99.38,52.06 -42.94,0 -75.28,-20.59 -99.4,-52.06 -14.42,-18.89 -25.94,-41.6 -34.96,-66.26 -20.98,-57.4 -28.39,-124.72 -28.39,-175.73 0,-109.18 34.27,-294 162.74,-294 128.47,0 162.72,184.82 162.72,294z" class="fil4"/><polygon points="4983.6 3144.58 4982.44 3143.49 4983.8 3143.49" class="fil5"/><path d="M4943.17 2914.17l50.9 0c-4.41,-45.87 -12.69,-88.69 -24.49,-125.5 -9.03,24.66 -20.52,47.41 -34.96,66.26 3.52,18.71 6.5,38.51 8.55,59.24z" class="fil5"/><path d="M4672.49 2993.77c0,56.44 5.61,110.8 16.08,158.56 3.25,14.98 7.01,29.24 11.18,42.82 2.26,7.32 4.65,14.41 7.12,21.22 10.57,28.49 42.69,115.24 128.34,115.24 85.66,0 117.81,-86.75 128.38,-115.24 3.45,-9.44 6.7,-19.5 9.68,-29.84 -11.59,-15.63 -25.62,-29.2 -41.52,-40.02 -19.43,89.28 -55.41,149.25 -96.54,149.25 -40.26,0 -75.66,-57.61 -95.3,-143.87 -2.74,-12.11 -5.2,-24.81 -7.32,-38.01 -5.99,-36.77 -9.24,-77.37 -9.24,-120.1 0,-50.04 4.48,-97.28 12.49,-138.84 4.69,-24.22 10.46,-46.62 17.41,-66.39 20.35,-59.46 49.53,-96.64 81.96,-96.64 32.46,0 61.68,37.18 81.99,96.64 8.45,-20.87 15.4,-44.95 20.46,-71.43 -19.87,-30.69 -51.79,-61.1 -102.45,-61.1 -50.63,0 -82.57,30.41 -102.41,61.1 -13.72,21.17 -21.65,42.55 -25.93,54.15 -2.15,5.64 -4.07,11.46 -5.98,17.51 -18.4,57.36 -28.39,129.27 -28.39,205z" class="fil5"/><path d="M4673.86 2612.6c0,51 7.42,118.33 28.39,175.8 1.91,-6.02 3.83,-11.84 5.98,-17.52 4.28,-11.63 12.21,-32.97 25.93,-54.12 -6.09,-31.87 -9.44,-67.08 -9.44,-104.16 0,-142.54 50.06,-258.12 111.86,-258.12 61.88,0 111.9,115.58 111.9,258.12 0,37.08 -3.36,72.29 -9.44,104.16 -5.06,26.44 -12,50.53 -20.46,71.39 -20.31,50.83 -49.53,82.61 -81.99,82.61 -32.43,0 -61.64,-31.78 -81.95,-82.61 -6.91,19.8 -12.73,42.18 -17.38,66.43 24.08,31.46 56.43,52.06 99.33,52.06 42.94,0 75.29,-20.59 99.41,-52.06 14.47,-18.89 25.93,-41.6 35,-66.26 20.93,-57.4 28.35,-124.72 28.35,-175.73 0,-109.18 -34.26,-294 -162.75,-294 -128.45,0 -162.72,184.82 -162.72,294z" class="fil4"/><path d="M1816.9 2499.28l-4.48 -0.17c69.51,-334.75 139.22,-670.38 262.96,-997.22 171.13,-451.94 432.39,-909.45 877.95,-1123.11 272.53,-130.7 826.81,-229.42 1276.19,202.26 93.81,90.72 168.36,189.37 232.22,290.38 310.46,494.97 434.25,1069.89 477.63,1607.17 -64.82,1.17 -129.61,2.33 -194.43,3.49 -17.71,-295.64 -35.64,-592.12 -101.79,-884.34 -66.13,-292.27 -181.91,-581.62 -385.09,-840.56 -239.19,-304.93 -694.37,-546.97 -1184.93,-343.2 -216.96,90.14 -372.19,239.07 -494.52,394.28 -404.15,512.58 -504.3,1113.94 -565.85,1698.74 -65.31,-2.57 -130.55,-5.14 -195.85,-7.7z" class="fil0"/></g></svg>