<svg xmlns="http://www.w3.org/2000/svg" xmlns:xlink="http://www.w3.org/1999/xlink" xmlns:xodm="http://www.corel.com/coreldraw/odm/2003" width="639.999" height="639.999" version="1.1" viewBox="0 0 6666.66 6666.66" xml:space="preserve" style="shape-rendering:geometricPrecision;text-rendering:geometricPrecision;image-rendering:optimizeQuality;fill-rule:evenodd;clip-rule:evenodd"><defs><style type="text/css">.fil0,.fil2,.fil4{fill-rule:nonzero}.fil2,.fil4{fill:#ffeec7}.fil4{fill:#edd192}.fil0{fill:#ddb458}.fil1,.fil3,.fil5{fill-rule:nonzero}.fil5{fill:#cea450}.fil3{fill:#6a6f6d}.fil1{fill:#495257}</style></defs><g id="Layer_x0020_1"><metadata id="CorelCorpID_0Corel-Layer"/><g id="_2282181964400"><path d="M2972.77 2998.97c0,0 257.71,-134.52 168.28,-232.1 -89.4,-97.57 -593.36,-341.41 -1129.81,-390.09 -536.48,-48.79 -918.54,-8.17 -1251.8,48.68 -333.22,56.95 -455.15,97.57 -455.15,97.57l0 284.45c0,0 189.7,56.44 214.11,324.67l180.43 7.25c0,0 103.56,-525.02 453.04,-565.64 349.5,-40.62 893.86,-81.24 1219.05,16.33 283.37,85.02 566.92,243.83 601.87,408.87z" class="fil0"/><path d="M2957.78 3483.16c-142.47,510.53 -535.61,925.62 -1141.63,925.62 -606.05,0 -1063.61,-478.48 -1097.3,-956.75 -13.04,-185.25 -56.5,-506.85 48.74,-653.62 193.88,-270.57 655.78,-303.13 1048.56,-303.13 398.95,0 905.25,103.49 1097.33,381.11 99.69,144.11 113.74,357.83 44.31,606.77z" class="fil1"/><path d="M2949.67 3480.91c-90.62,320.79 -284.1,613.61 -578.32,780.08 -322.36,182.49 -734.72,183.82 -1063.09,17.15 -302.61,-153.61 -540.88,-456.33 -578.56,-798.35 -18.43,-167.28 -36.63,-344.87 -12.82,-512.16 11.71,-82.37 40.91,-151.77 97.65,-213.01 55.48,-59.81 126.6,-102.98 200.5,-136.15 169.05,-76.04 360.96,-97.68 544.04,-108.39 182.36,-10.72 366.27,-10.41 547.8,11.33 183.92,21.94 369.44,65.52 536.35,147.48 151.67,74.41 281.5,188.1 328.27,355.29 41.58,148.71 18.15,310.58 -21.81,456.74 -2.87,10.52 13.37,14.91 16.23,4.49 49.06,-179.43 70.3,-380.09 -10.7,-553.8 -65.31,-139.93 -204.27,-232.5 -340.3,-294.66 -326.28,-149.22 -703.44,-163.2 -1055.85,-143.71 -176.81,9.8 -357.31,32.66 -522.98,98.19 -130.6,51.74 -265.15,142.07 -313.96,279.86 -55.31,156.06 -31.43,339.57 -18.05,500.73 6.17,74.3 11.11,147.79 28.11,220.67 17.59,75.43 46.03,148.09 80.95,217.09 153.62,303.33 453.72,520.22 785.12,586.46 333.16,66.65 688.88,-20.51 950.23,-237.2 207.4,-172.08 344.84,-416.73 417.43,-673.63 2.96,-10.51 -13.29,-14.9 -16.23,-4.49z" class="fil0"/><path d="M3099.06 2855.36c0,0 232.5,-75.94 506.11,5.81l0 -113.8c-49.88,-83.69 -407.86,-83.69 -512.35,-6.63 9.87,72.77 6.01,66.75 6.25,114.62z" class="fil0"/><path d="M3726.47 2974.57c0,0 -257.74,-134.52 -168.3,-232.09 89.43,-97.47 593.35,-341.41 1129.8,-390.09 536.5,-48.78 918.55,-8.16 1251.76,48.69 333.26,56.95 455.2,97.57 455.2,97.57l0 284.56c0,0 -189.74,56.44 -214.1,324.67l-180.44 7.15c0,0 -103.5,-525.02 -453.03,-565.64 -349.46,-40.62 -893.87,-81.24 -1219.01,16.33 -283.41,85.02 -566.93,243.83 -601.87,408.87z" class="fil0"/><path d="M3741.46 3458.77c142.44,510.53 535.59,925.62 1141.56,925.62 606.06,0 1063.69,-478.48 1097.37,-956.75 13.06,-185.25 56.49,-506.75 -48.81,-653.62 -193.83,-270.47 -655.75,-303.13 -1048.56,-303.13 -398.91,0 -905.19,103.49 -1097.27,381.11 -99.68,144.12 -113.76,357.84 -44.3,606.78z" class="fil1"/><path d="M3733.34 3461.01c86.43,305.99 264.97,586.87 535.89,760.28 292.91,187.39 675.47,220.56 1000.71,103.59 308.93,-111.15 566.14,-363.45 673.45,-674.65 51.09,-148.09 55.76,-311.5 63.23,-466.74 7.23,-150.34 9.13,-322.42 -91.71,-444.49 -101.38,-122.78 -259.39,-184.84 -409.89,-221.28 -177.6,-43.07 -362.8,-52.26 -544.84,-54.81 -341.23,-4.69 -722.83,33.07 -1014.92,225.87 -105.67,69.71 -188.74,165.04 -227.93,286.5 -50.44,156.46 -26.42,330.59 16,485.72 2.87,10.41 19.09,6.02 16.24,-4.49 -52.51,-191.89 -74.69,-416.53 38,-592.18 90.93,-141.77 256.41,-224.65 410.18,-278.94 346.44,-122.27 738.1,-127.38 1099.76,-86.35 174.87,19.8 357.1,59.61 504.47,160.44 66.48,45.42 126.83,107.37 155.91,183.51 30.52,79.92 33.92,169.63 34.1,254.14 0.16,86.85 -7.22,173.51 -14.43,259.96 -6.59,79.31 -13.13,156.98 -33.73,234.14 -43.5,163.2 -134.06,311.91 -249.02,434.49 -259.81,277 -645.65,395.09 -1017.59,333.34 -338.93,-56.24 -618.94,-273.64 -788.79,-567.68 -60.63,-105.03 -105.93,-218.32 -138.84,-334.87 -2.95,-10.41 -19.19,-6.02 -16.24,4.49z" class="fil0"/><path d="M652.52 2747.17c0,18.37 -67.33,33.37 -150.39,33.37 -83.05,0 -150.35,-15 -150.35,-33.37 0,-18.37 67.3,-33.38 150.35,-33.38 83.06,0 150.39,15.01 150.39,33.38z" class="fil2"/><path d="M6325.49 2698.08c0,18.48 -67.29,33.38 -150.31,33.38 -83.1,0 -150.39,-14.9 -150.39,-33.38 0,-18.37 67.29,-33.37 150.39,-33.37 83.02,0 150.31,15 150.31,33.37z" class="fil2"/><path d="M950.58 3958.48c0,0 -72.63,-84.2 -134.26,-255.16 -43.19,-120.03 -78.31,-291.3 -90.67,-469.29 -18.02,-260.47 -1.33,-486.85 310.89,-603.72 231.47,-86.55 481.09,-117.37 711.7,-117.37 442.77,0 815.48,113.7 855.34,164.73l-1653.02 1280.81z" class="fil3"/><path d="M4046.1 3975.11c0,0 -258.84,-322.32 -308.92,-671.07 -34.62,-241.18 0,-493.79 363.73,-664.54 249.16,-116.87 504.54,-127.48 748.43,-142.28 49.14,-2.96 97.32,-4.28 144.29,-4.28 370.15,0 665.67,86.04 767.5,160.75l-1715.03 1321.43z" class="fil3"/><path d="M3160.51 2832.3l-39.22 -97.78c0,0 90.76,-32.36 167.43,-32.36 10.72,0 21.18,0.72 31.06,2.15l-3.87 112.27c-7.69,-0.41 -15.37,-0.61 -23.02,-0.61 -68.68,0 -132.38,16.33 -132.38,16.33z" class="fil4"/><path d="M1154.71 4226.09c0,0 -185.4,103.08 -255.9,85.32 -70.48,-17.86 -93.6,-92.98 -77.65,-145.24 21.8,-71.44 117.35,-146.46 117.35,-146.46l216.2 206.38z" class="fil1"/><path d="M5508.71 4226.09c0,0 185.33,103.08 255.87,85.32 70.48,-17.86 93.65,-92.98 77.69,-145.24 -21.8,-71.44 -117.35,-146.46 -117.35,-146.46l-216.21 206.38z" class="fil1"/><polygon points="2736.89 2550.9 3913.78 2547.54 3634.76 2683.79 3023.87 2683.79" class="fil5"/></g></g></svg>