<svg xmlns="http://www.w3.org/2000/svg" xmlns:xlink="http://www.w3.org/1999/xlink" xmlns:xodm="http://www.corel.com/coreldraw/odm/2003" width="639.999" height="639.999" version="1.1" viewBox="0 0 6666.66 6666.66" xml:space="preserve" style="shape-rendering:geometricPrecision;text-rendering:geometricPrecision;image-rendering:optimizeQuality;fill-rule:evenodd;clip-rule:evenodd"><defs><style type="text/css">.fil3{fill:#a6dbdf;fill-rule:nonzero}.fil0{fill:#91d5db}.fil0,.fil1,.fil2{fill-rule:nonzero}.fil2{fill:#84d0d3}.fil1{fill:#7cc}</style></defs><g id="Layer_x0020_1"><metadata id="CorelCorpID_0Corel-Layer"/><path d="M4450.54 2797.74c-97.52,102.46 -294.47,234.83 -401.74,352.22 -36.57,40.04 -157.25,128.29 -276.69,213.28 -121.85,86.75 -242.71,170.17 -272.24,196.21 -58.61,51.52 -471.26,469.29 -634.65,559.42 -129.11,71.14 -265.47,120.15 -330.57,205.96 -44.04,58.13 -242.25,467.97 -367.94,731.96 -20,42.33 -38.33,80.94 -53.78,113.75 -30.39,64.32 -50.02,106.32 -51.79,110.42 -8.03,19.36 50.89,89.71 -32.03,108.72 -82.79,19.04 -549.7,31.21 -845.65,-94.62 -295.94,-125.86 -504.8,-355.64 -518.18,-403.6 -23.41,-84.21 56.75,-94.33 81.02,-111.36 0,0 532.01,-822.93 552.72,-860.27 20.7,-37.33 46.26,-517.3 94.2,-778.29 20.08,-109.48 196.89,-598.04 308.98,-1081.77 155,-669.17 227.39,-1361.67 422.56,-1319.81 26.13,5.67 44.78,24.93 57.7,54.79 25.67,59.83 27.78,162.25 18.15,281.46l-0.11 0.85c-5.25,65.48 -14.08,136.29 -24.3,207.85l-0.4 2.35c-43.91,305.31 -114.39,625.67 -54.5,631.74 5.2,0.52 10.86,-2.44 17.14,-8.56 126.51,-125.19 444.75,-1577.94 680.13,-1498.18 24.11,8.13 40.32,28.82 49.87,59.29 5.18,16.29 8.4,35.33 10.14,56.99 9.58,126.19 -37.13,336.86 -97,556.82 -58.89,179.71 -123.79,357.79 -165.75,542.48 -9.11,39.75 -17.02,79.83 -23.54,120.2 -16.22,65.87 -25.87,117.33 -24.97,148.15 0.37,16.9 3.87,27.64 11.33,30.85l0.4 0.11c48.76,19.1 202.21,-394.98 377.57,-809.07 184.98,-436.85 394.37,-873.68 530.97,-801.93 23.06,12.15 38.18,34.56 46.41,65.52l0.06 0.3c8.47,31.75 9.98,72.29 5.69,119.82 -36.06,401.03 -479.59,1292.72 -503.8,1469.76 -2.51,17.36 -0.86,27.99 5.68,30.35l0.4 0.11c43.65,13.79 221.01,-333.64 412.37,-681.07 201.74,-366.26 419.06,-732.53 511.74,-675.57 19.62,12 29.17,38.56 30.39,76.7 11.13,314.14 -536.17,1414.04 -647.43,1649.13 -73.74,155.93 -125.83,328.37 -129.9,456.2l-0.03 0.12c-2.83,88.21 17.37,155.28 68.9,180.88 126.36,62.56 282.08,-134.24 652.36,-289.24 350.63,-146.76 559.19,-86.04 567.51,-25.82 3.94,28.38 -19.06,64.17 -57.4,104.42z" class="fil0"/><path d="M2009.89 5276.05c-232.01,-2.7 -459.69,-17.47 -684.22,-82.93 -111.52,-32.51 -219.91,-77.65 -319.01,-138.57 -95.52,-58.72 -173.71,-136.83 -237.85,-228.43 -1.25,-1.78 -4.12,-0.37 -3.05,1.67 105.91,200.67 318.86,314.56 528.27,379.91 228.81,71.42 478.27,88.31 716.8,76.11 8.62,-0.43 7.9,-7.64 -0.93,-7.75z" class="fil1"/><path d="M1839.77 5401.56c-184.8,0 -458.67,-22.49 -656.3,-106.52 -295.94,-125.86 -504.8,-355.64 -518.18,-403.6 -2.93,-10.53 -4.23,-19.89 -4.24,-28.26 -0.01,-58.58 64.02,-68.19 85.26,-83.09 0,0 532.01,-822.93 552.72,-860.27 20.7,-37.33 46.26,-517.3 94.2,-778.29 20.08,-109.48 196.89,-598.04 308.98,-1081.77 150.5,-649.76 223.17,-1321.61 405.92,-1321.61 5.46,0 10.97,0.59 16.64,1.8 26.13,5.67 44.78,24.93 57.7,54.79 0,0.35 -0.11,0.52 -0.33,0.52 -1.26,0 -6.04,-5.17 -13.35,-10.36 -7.32,-5.17 -17.17,-10.35 -28.57,-10.35 -2.51,0 -5.12,0.26 -7.79,0.82 -72.24,15.21 -91.75,119.79 -105.42,185.85 -21.72,104.21 -43.18,208.52 -64.75,312.64 -43.81,210.65 -88.32,421.24 -132.81,631.69 -38.9,184.14 -83.08,368.04 -113.93,553.85 -15.68,94.99 -24.71,190.5 -23.68,286.79 0.96,89.63 6.99,179.29 0.86,268.85 -12.4,180.23 -61.11,355.4 -70.7,536.33 -9.07,172.37 -3.32,349.42 -62.09,514.54 -54.86,153.8 -153.5,288.08 -205.52,443.03 -54.48,162.32 -25.32,326.28 94.4,451.17 125.33,130.9 307.91,182.08 483.14,201.13 57.57,6.29 115.32,9.32 173.17,9.32 2.61,0 5.21,0 7.83,-0.02 -30.39,64.32 -50.02,106.32 -51.79,110.42 -0.54,1.29 -0.78,2.79 -0.78,4.5 -0.03,13.04 13.64,37.49 13.64,59.92 0.02,18.8 -9.58,36.21 -44.89,44.3 -27.5,6.34 -97.42,11.89 -189.35,11.89zm-1072.47 -576.25c-1.17,0 -2.27,1.1 -1.54,2.48 105.91,200.67 318.86,314.56 528.27,379.91 184.56,57.61 382.6,79.74 577.47,79.74 46.71,0 93.2,-1.26 139.32,-3.63 8.62,-0.43 7.9,-7.64 -0.93,-7.75 -232.01,-2.7 -459.69,-17.47 -684.22,-82.93 -111.52,-32.51 -219.91,-77.65 -319.01,-138.57 -95.52,-58.72 -173.71,-136.83 -237.85,-228.43 -0.4,-0.57 -0.96,-0.82 -1.51,-0.82z" class="fil2"/><path d="M1871.5 5287.43c-194.87,0 -392.91,-22.13 -577.47,-79.74 -209.41,-65.35 -422.36,-179.24 -528.27,-379.91 -0.73,-1.39 0.36,-2.48 1.54,-2.48 0.55,0 1.11,0.25 1.51,0.82 64.15,91.6 142.33,169.71 237.85,228.43 99.1,60.92 207.49,106.06 319.01,138.57 224.53,65.46 452.21,80.22 684.22,82.93 8.83,0.11 9.56,7.32 0.93,7.75 -46.13,2.36 -92.61,3.63 -139.32,3.63z" class="fil1"/><path d="M3067.95 2029.25c-0.26,0 -0.51,0 -0.78,-0.02 -16.5,-0.51 -23.31,-12.8 -25.14,-27.25 0.85,0.28 1.74,0.4 2.67,0.4 47.82,0 222.01,-340.72 409.7,-681.47 187.67,-340.71 388.82,-681.46 490.58,-681.46 7.63,0 14.68,1.92 21.15,5.89 19.62,12 29.17,38.56 30.39,76.7 -23.06,4.5 -48.08,23.63 -63.64,41.06 -24.48,27.54 -47.82,56.14 -70.79,84.98 -38.08,47.85 -74.57,96.86 -109.71,146.94 -27.82,8.06 -46.42,37.68 -57.44,84.15 -122.93,184.9 -231.67,378.92 -348.36,567.72 -64.72,104.74 -131.61,208.39 -205.65,306.89 -14.65,19.51 -42.87,75.44 -72.99,75.44z" class="fil2"/><path d="M2608.28 1946.44c-11.57,0 -21.68,-5.61 -29.32,-19.04l0.08 -0.28c1.08,0.43 2.22,0.64 3.4,0.64 52.21,0 202.71,-404.85 374.17,-809.71 171.44,-404.85 363.84,-809.7 499.83,-809.7 10.75,0 21.13,2.53 31.14,7.78 23.06,12.15 38.18,34.56 46.41,65.52l0.06 0.3c-6.94,-3.35 -14.53,-4.82 -22.39,-4.82 -23.35,0 -49.17,12.93 -68.36,27.32 -183.89,137.67 -438.34,790.57 -539.09,1054.39 -44.17,115.54 -81.51,239.35 -145.56,346.15 -15.35,25.51 -97.8,141.46 -150.37,141.46z" class="fil2"/><path d="M2159.06 1912.46c-6.67,0 -13.53,-0.65 -20.63,-2.04 123.13,-121.85 427.9,-1501.35 661.11,-1501.35 6.4,0 12.72,1.03 19.02,3.17 24.11,8.13 40.32,28.82 49.87,59.29 -35.08,3.56 -70,21.36 -95.02,46.28 -44.92,44.83 -71.21,107.01 -97.56,163.54 -109.04,234 -184.03,481.67 -258.93,728.04 -37.02,121.72 -72.72,244.4 -116.72,363.78 -23.11,63.14 -69.57,139.29 -141.15,139.29z" class="fil2"/><path d="M3416.14 3115.39c-64.93,0 -129.41,-22.8 -167.96,-78.22 -43.51,-62.64 -42.64,-137.38 -29.01,-209.67 -0.18,5.35 -0.26,10.6 -0.26,15.79 0,80.39 20.76,141.03 69.17,165.09 16.49,8.17 33.49,11.91 51.39,11.91 119.14,0 278.65,-166.01 599.94,-300.72 9.76,43.93 18.82,85 26.9,122.36 -59.85,28.08 -117.94,60.03 -174.5,94.18 -96.21,58.25 -187.87,137.94 -297.98,168.63 -24.82,6.86 -51.3,10.63 -77.68,10.64z" class="fil2"/><path d="M2166.71 5056.78c48.41,-178.58 116.56,-353.4 190.89,-522.64 37.86,-86.29 78.11,-171.29 121.21,-255.17 34.08,-66.56 63.15,-127.35 133.81,-160.25 70.26,-32.57 142.41,-53.91 208.19,-96.78 70.96,-46.28 129.03,-105.76 183.04,-170.65 50.15,-60.65 97.97,-124.17 157.58,-176.09 40.04,-34.97 84.68,-63.85 130.74,-90.21 36.78,21.57 62.75,37.75 71.35,46.21 4.99,4.9 13.96,16.57 26.14,33.69 -149.89,144.75 -404.41,387.76 -524.44,453.97 -129.11,71.14 -265.47,120.15 -330.57,205.96 -40.19,53.06 -208.85,399.17 -333.56,659.89 -11.92,24.92 -23.43,49.06 -34.39,72.07z" class="fil2"/><path d="M3749.11 3379.58c-2.78,-1.46 -5.57,-2.94 -8.39,-4.47 10.44,-4 20.9,-7.96 31.39,-11.88 -7.68,5.46 -15.35,10.92 -23,16.35z" class="fil2"/><path d="M2763.73 3451.01c-62.97,161.15 -141.17,316.47 -233.83,463.47 -23.13,36.69 -45.18,76.68 -73.06,110.35 -11.44,13.79 -26.32,24.94 -46.54,20.33 -58.11,-13.06 -69.72,-116.2 -78.81,-158.6 -30.71,-143.48 -29.97,-289.46 -37.13,-434.25 -5.98,-121.75 -18.64,-243.44 -57.86,-359.98 -28.72,-62.23 -60.56,-123.22 -96.53,-182.47 -50.64,-83.68 -112.24,-159.67 -168.36,-239.97 -47.57,-68.07 -88.07,-146.33 -84.29,-228.46 2.4,-50.91 29.85,-128.35 100.06,-96.32 42.79,19.37 81,54.8 118.82,81.76 36.92,26.54 73.87,52.97 110.83,79.39 77.46,55.53 154.96,110.92 230.77,168.65 69.41,52.87 137.48,107.39 202.48,164.92 59.92,53.18 126.97,109.15 166.46,178.07 34.32,59.97 37.29,125.56 25.26,189.98 -15.41,83.28 -47.75,164.56 -78.28,243.13z" class="fil3"/><path d="M2091.37 1809.24c-3.67,30.63 -6.75,61.28 -32.64,81.32 -5.82,4.5 -12.85,2.3 -15.46,-4.56 -26.46,-72.37 -4.83,-163.46 4.28,-237.65 11,-89.42 22,-178.85 33,-268.28 18.75,-152.14 32.94,-306.96 59.15,-458.35 0.4,-6.26 0.75,-12.37 1.14,-18.64 1.37,-23.33 -0.28,-47.71 9.92,-69.03 3.07,-6.48 11.71,-4.37 14.96,0.35 45.71,67.47 38.52,171.06 34.52,248.48 -4.63,90.43 -19.54,179.86 -36.02,268.7 -18.59,100.51 -37.87,200.82 -52.62,302.01 -7.57,51.78 -14.18,103.69 -20.22,155.64z" class="fil3"/><path d="M3035.95 1971.53c-15.25,5.07 -30.8,-1.11 -36.06,-19.15 -4.36,-15.2 1.08,-31.7 4.87,-46.5 7.25,-28.56 15.17,-56.92 22.96,-85.32 15.75,-56.9 32.13,-113.46 49.33,-169.93 68.3,-223.98 152.38,-441.6 236.98,-659.93 42.57,-110.1 83.53,-221.1 115.98,-334.75 11.78,-41.42 29.93,-166.96 94.7,-157.29 4.24,-3.53 11.24,-4.22 14.58,2.13l0.44 0.98c-36.06,401.03 -479.59,1292.72 -503.8,1469.76z" class="fil3"/><path d="M2567.31 1896.17c-1.31,1.5 -2.71,2.82 -4.35,3.93 -19.67,14.18 -38.13,-5.74 -45.75,-23.61 -15.86,-37.54 -3.48,-87.9 1.09,-126.53 25.93,-216.78 89.91,-426.11 154.18,-633.93 32.91,-106.28 65.76,-212.43 94.81,-319.85 19.04,-70.56 28.22,-153.28 62.46,-220.36l0.35 -2.65c5.79,-16.25 15.83,-37.03 30.18,-43.96l2.24 -2.67c1.31,-1.5 3.36,-0.61 4.25,0.81 3.67,-0.65 7.63,-0.35 11.82,1.17 9.58,126.19 -37.13,336.86 -97,556.82 -58.89,179.71 -123.79,357.79 -165.75,542.48 -9.11,39.75 -17.02,79.85 -23.54,120.2 -16.22,65.87 -25.89,117.33 -24.97,148.15z" class="fil3"/><path d="M5615.06 2791.76c-2.3,77.6 120.32,887.82 125.07,1154 4.61,266.2 -127.14,719.2 -124.35,737.6 2.52,16.63 249.35,796.52 304.24,941.04 5.32,13.81 8.76,21.72 10.19,22.76 3.63,2.68 11.71,8.63 21.53,16.97 32.86,27.77 84.59,81.88 51.72,126.46 -42.79,57.89 -289.33,254.49 -683.61,309.4 -394.41,55.04 -703.57,-38.64 -753.22,-82.68 -49.47,-43.91 -29.43,-91.47 -21.93,-134.76 7.5,-43.27 -205.82,-1069.43 -275.1,-1075.1 -40.25,-3.32 -233.76,-198.78 -324.96,-306.63 -91.22,-107.98 -531.61,-820.94 -581.11,-869.64 -49.51,-48.7 -676.31,-354.18 -623.58,-469.91 52.74,-115.58 348.72,-108.97 585.78,-27.69 157.92,54.07 432.48,290.36 529.3,280.35 96.82,-9.89 138.99,-226.97 151.31,-345.98 12.5,-118.9 -513.32,-2015.31 -250.64,-2073.76 14.14,-3.11 27.72,-1.52 41.26,4.43l0.15 -0.01 0.89 0.41c2.42,1.04 4.71,2.25 7.02,3.59 3.06,1.64 6.15,3.56 9.14,5.64 217.46,152.24 368.85,1371.64 498.93,1490.46 7.65,6.99 15.3,10.18 22.86,9.04 3.15,-0.49 5.92,-1.75 8.56,-3.82 116.33,-90.79 -361.29,-1725.36 -73.25,-1775l1.51 -0.24c36.65,-5.54 70.85,17.09 103.04,60.83 202.61,275.97 322.19,1394.71 419.39,1641.54l0.03 0.15c12.79,32.61 25.25,49.97 37.47,48.13 9.75,-1.49 17.06,-12.71 22.14,-32.02 57.58,-216.32 -143.21,-1452 68.19,-1475.29 9.41,-1 18.5,0.72 27.31,5.01 15.63,7.6 30.37,23.35 44.32,45.96 139.02,224.22 196.22,1123 243.81,1446.61l0.04 0.28c10.86,73.65 21.13,117.32 31.82,116.54l1.9 -0.42c61.71,-26.62 -1.4,-1155.58 235.61,-1121.91 10.18,1.4 19.72,5.01 28.72,10.68 19.24,11.97 35.5,33.11 49.08,61.68 128.86,268.46 31.48,1188.11 29.42,1255.29z" class="fil0"/><path d="M5913.31 5690.44c-167.63,156.51 -407.56,243.66 -631.01,279.44 -226.49,36.28 -467.06,21.31 -685.42,-50.72l-0.7 1.72c223.25,83.32 459.7,109.82 695.57,71.99 223.53,-35.86 472.35,-124.14 624.04,-300.06 1.26,-1.47 -1.06,-3.72 -2.49,-2.37z" class="fil1"/><path d="M3714.25 1586.5c-19.82,-139.09 -32.14,-265.01 -32.15,-364.75 0.02,99.74 12.33,225.65 32.15,364.75l0 0zm82.71 -587.87c-8.63,-3.79 -17.28,-5.82 -26.08,-5.97 8.83,0.14 17.54,2.15 26.19,5.96l-0.11 0.01z" class="fil2"/><path d="M5077.68 6116.84c-273.82,0 -472.14,-65 -511.06,-99.53 -25.13,-22.29 -32.32,-45.54 -32.33,-68.68 -0.02,-22.43 6.7,-44.78 10.4,-66.08 0.13,-0.74 0.19,-1.77 0.19,-3.07 0.06,-74.97 -207.21,-1066.46 -275.29,-1072.03 -40.25,-3.32 -233.76,-198.78 -324.96,-306.63 -82.02,-97.1 -446.35,-683.32 -554.97,-835.94 -12.18,-17.13 -21.15,-28.79 -26.14,-33.69 -8.59,-8.46 -34.57,-24.64 -71.35,-46.21 -117.65,-69.02 -345.87,-193.22 -469.98,-296.35 -51.7,-42.94 -85.33,-82.25 -85.4,-112.38 -0.02,-5.28 1.01,-10.28 3.15,-14.97 27.79,-60.9 123.13,-87.87 241.78,-87.87 106.54,0 231.84,21.74 344,60.18 154.65,52.94 421.18,280.65 523.07,280.65 2.15,0 4.22,-0.1 6.23,-0.31 96.82,-9.89 138.99,-226.97 151.31,-345.98 0.15,-1.39 0.22,-3.03 0.22,-4.91 0.01,-27.77 -15.71,-107.74 -40.25,-221.12 -8.08,-37.36 -17.14,-78.43 -26.9,-122.36 -68.83,-310.14 -172.99,-767.13 -225.15,-1133.07 -19.82,-139.09 -32.14,-265.01 -32.15,-364.75 -0.03,-130.28 20.94,-215.83 73.6,-227.56 4.75,-1.04 9.46,-1.56 14.13,-1.56 0.35,0 0.7,0 1.06,0.01 8.8,0.15 17.46,2.18 26.08,5.97l0.11 -0.01c0.31,0.14 0.63,0.28 0.93,0.41 -58.26,90.15 -27.15,225.22 -10.8,323.04 52.22,312.52 140.65,617.43 227.42,921.63 43.61,152.56 86.9,305.01 125.24,458.93 36.68,146.85 74.36,296.52 81.32,448.29 6.36,141.32 -27.81,268.29 -74.87,400 -49.71,139.31 -87.68,276.39 -57.47,424.92 28.82,142.15 110.44,257.35 216.03,353.6 90.93,82.89 192.61,154.18 276.8,244.54 187.63,201.13 201.22,477.61 280.11,727.81 40.53,128.57 103.24,248.59 205.97,338.13 95.61,83.15 215.7,137.87 341.75,152.09 25.22,2.86 50.28,4.21 75.11,4.21 163.75,0 318.81,-58.75 467.14,-132.07 25.44,21.5 62.21,58.81 62.24,95.25 0.02,10.61 -3.09,21.15 -10.51,31.21 -42.79,57.89 -289.33,254.49 -683.61,309.4 -85.29,11.91 -166.61,16.85 -242.17,16.85zm-480.8 -197.68l-0.7 1.72c156.43,58.37 319.35,88.86 484,88.88 70.33,0 140.97,-5.57 211.57,-16.89 223.53,-35.86 472.35,-124.14 624.04,-300.06 1,-1.15 -0.21,-2.79 -1.47,-2.79 -0.35,0 -0.71,0.13 -1.02,0.42 -167.63,156.51 -407.56,243.66 -631.01,279.44 -78.6,12.6 -158.92,19.02 -239.39,19.02 -151.42,0 -303.46,-22.71 -446.03,-69.74z" class="fil2"/><path d="M5080.18 6009.76c-164.65,-0.02 -327.57,-30.5 -484,-88.88l0.7 -1.72c142.57,47.03 294.61,69.74 446.03,69.74 80.47,0 160.79,-6.42 239.39,-19.02 223.46,-35.78 463.39,-122.93 631.01,-279.44 0.31,-0.3 0.67,-0.42 1.02,-0.42 1.26,0 2.47,1.64 1.47,2.79 -151.7,175.92 -400.52,264.2 -624.04,300.06 -70.6,11.31 -141.24,16.89 -211.57,16.89z" class="fil1"/><path d="M4881.5 2460.39c-0.69,0 -1.37,-0.01 -2.08,-0.06 -9.5,-0.53 -17.69,-5.47 -24.58,-13 7.79,-29.25 10.85,-77.17 10.85,-138.19 -0.03,-225.63 -41.96,-630.61 -42,-936.02 -0.03,-222.79 22.24,-392.58 99.35,-401.08 1.75,-0.18 3.49,-0.26 5.21,-0.26 7.57,0 14.93,1.78 22.1,5.28 -18.15,38.83 -21.08,85.35 -23.32,128.11 -4.08,76.06 -5.89,152.32 -6.43,228.54 -0.83,154.08 3.4,308.25 6.9,462.22 2.93,130.76 5.58,261.57 3.9,392.44 -0.8,67.12 -1.69,134.56 -6.44,201.57 -1.82,24.35 -11.25,70.44 -43.44,70.44z" class="fil2"/><path d="M5291.53 2598.36c-5.47,0 -10.96,-2.18 -16.04,-7.5 -1.33,-1.33 -2.43,-3 -3.26,-4.83 60.8,-26.24 0.44,-1122.65 225.36,-1122.65 3.35,0 6.76,0.24 10.25,0.74 10.18,1.4 19.72,5.01 28.72,10.68 -24.18,28.65 -37.24,66.74 -48.96,102.5 -16.93,52.43 -30.46,106.04 -41.24,160.07 -20.25,101.96 -31.42,205.49 -41.22,308.67 -9.22,95.93 -17.17,191.96 -30.24,287.49 -6.43,47.46 -14.31,94.87 -24.07,141.72 -6.57,31.75 -10.01,73.02 -27.83,101 -6.97,11.07 -19.15,22.13 -31.47,22.13z" class="fil2"/><path d="M4378.75 2520.65c-14.68,0 -25.65,-6.65 -34.25,-16.72 13.07,-10.21 18.64,-39.88 18.64,-84.57 0.06,-258.33 -185.72,-1018.78 -185.76,-1426.39 -0.02,-149.98 25.11,-252.19 93.87,-264.04 -15.03,48.21 -10.43,107.48 -10.28,152.98 0.26,86.21 6.24,172.1 15.29,257.83 16.94,162.07 46.83,322.46 78.32,482.18 28.56,145.14 58.78,290.03 82.43,436.18 12.06,75.01 22.46,150.28 30.13,225.96 4.82,47.6 9.59,96.87 -1.81,143.97 -9.19,37.64 -34.74,84.21 -76.86,91.71 -3.41,0.61 -6.65,0.9 -9.72,0.9z" class="fil2"/><path d="M5615.06 2791.76c-2.3,77.6 120.32,887.82 125.07,1154 4.61,266.2 -127.14,719.2 -124.35,737.61 2.52,16.61 249.35,796.5 304.24,941.03 -24.1,-2.38 -47.87,-11.02 -69.08,-23.95 -55.43,-34.04 -84.87,-95.75 -107.35,-154.3 -25.28,-65.83 -48.72,-132.53 -74.41,-198.3 -102.67,-263.44 -223.51,-524.54 -398.69,-748.36 -42.67,-54.5 -88.32,-106.44 -137.42,-155.21 -51.72,-51.31 -110.14,-93.87 -163.65,-142.96 -46.64,-42.81 -69.4,-93.85 -62.61,-157.53 6.56,-60.69 30.54,-121.22 55.94,-176.19 102.14,-220.68 283.64,-390.44 403.79,-599.96 69.57,-121.36 105.02,-249.07 110.42,-388.82 2.9,-75.44 0.06,-150.87 2.28,-226.22 2.39,-79.86 12.76,-158.83 28.03,-237.14 30.02,-154.43 73.54,-305.83 88.97,-462.83 13.57,-138.58 8.72,-278.32 -10.59,-416.15 128.86,268.46 31.48,1188.11 29.42,1255.29z" class="fil3"/><path d="M5238.46 2469.63l0.04 0.28c-0.22,40.35 -0.7,80.74 -1.47,121.17 -0.14,6.48 -9.26,10.25 -14.11,6.07 -35.07,-30.38 -49.71,-72.26 -57.85,-116.83 -11.58,-62.57 -18.28,-126.32 -26.82,-189.22 -32.49,-239.65 -62.07,-479.72 -88.89,-720.09 -13.22,-118.94 9.67,-217.65 -1.92,-336.83 -5.78,-59.53 -46.89,-139.7 -51.71,-199.38 -0.3,-2.9 -0.78,-7.04 -1.08,-11.78 139.02,224.22 196.22,1123 243.81,1446.61z" class="fil3"/><path d="M4313.09 2498.71c-1,17.57 -6.02,34.49 -18.49,49.57 -2.5,3.04 -6.48,4.5 -10.08,2.93 -43.37,-17.44 -62.37,-61.21 -81.02,-100.96 -26.9,-57.03 -49.86,-115.92 -69.75,-175.85 -131.76,-398.24 -133.26,-830.38 -307.47,-1214.75 -3.36,0.93 -6.89,-0.08 -8.24,-4.37 -2.46,-7.9 -3.75,-15.44 -4.46,-22.92 -5.35,-11.28 -10.88,-22.67 -16.47,-33.75l-0.15 0.01 -0.82 -1.83c-1.57,-2.86 2.8,-4.64 4.44,-2.08 1.51,2.58 3.06,5.31 4.43,7.91 2.86,5.04 5.58,9.96 8.29,14.9 0.1,-3.11 0.49,-6.11 0.85,-9.26 217.46,152.24 368.85,1371.64 498.93,1490.46z" class="fil3"/><path d="M4795.2 2431.07l0.03 0.15c-3.33,22.56 -8.36,44.94 -15.56,67.09 -1.53,4.74 -7.5,7.04 -11.86,5.17 -49.74,-21.4 -68.24,-80.54 -87.04,-126.86 -26.9,-66.32 -48.37,-134.85 -65.89,-204.25 -64.94,-257.35 -74.7,-524.17 -113.86,-785.71 -20.19,-135.29 -53.64,-267.2 -85.13,-400.08 -15.5,-65.24 -30.21,-130.85 -40.08,-197.06 202.61,275.97 322.19,1394.71 419.39,1641.54z" class="fil3"/></g></svg>