<svg xmlns="http://www.w3.org/2000/svg" xmlns:xlink="http://www.w3.org/1999/xlink" xmlns:xodm="http://www.corel.com/coreldraw/odm/2003" width="639.999" height="639.999" version="1.1" viewBox="0 0 6666.66 6666.66" xml:space="preserve" style="shape-rendering:geometricPrecision;text-rendering:geometricPrecision;image-rendering:optimizeQuality;fill-rule:evenodd;clip-rule:evenodd"><defs><style type="text/css">.fil3{fill:#392e2f}.fil0,.fil2,.fil3,.fil4{fill-rule:nonzero}.fil4{fill:#3f3233}.fil2{fill:#47393a}.fil0{fill:#564446}.fil5{fill-rule:nonzero}.fil6{fill:#574345}.fil6,.fil8{fill-rule:nonzero}.fil5{fill:#725b5d}.fil8{fill:#7c6567}.fil1{fill:#7c6e6f}.fil1,.fil7,.fil9{fill-rule:nonzero}.fil7{fill:#d16732}.fil9{fill:#d4703e}</style></defs><g id="Layer_x0020_1"><metadata id="CorelCorpID_0Corel-Layer"/><path d="M1490.48 3374.49c0,0 -885.03,219.18 -1082.87,563.72 -198.02,344.51 384.18,973.3 1909.61,693.86 1525.43,-279.46 3306.88,-2027.94 3306.88,-2027.94l-4133.61 770.36z" class="fil0"/><path d="M1490.48 3374.49c-75.31,22.24 -149.81,47.3 -223.51,74.04 -469.69,166.77 -1087.85,458.48 -774.67,841.8 433.3,533.97 1712.91,378.52 2407.24,115.18 918.19,-350.78 1988.17,-1149.27 2724.55,-1801.38 -936.63,951.38 -2288.47,1977.59 -3611.22,2127.31 -1641.3,179.25 -2530.57,-912.93 -522.39,-1356.95z" class="fil1"/><path d="M1373.96 3910.13c0,0 3388.5,417.12 4576.14,28.08 0,0 174.7,-470.56 174.7,-854.78 0,-384.28 300.14,-549.78 300.14,-549.78l-1650.85 -218.73 -3400.14 1595.21z" class="fil2"/><path d="M6061.92 3556.46c34.11,-147.12 62.88,-317.2 62.88,-473.04 0,-384.28 300.14,-549.78 300.14,-549.78l-1650.85 -218.73 -3400.14 1595.21c0,0 2847.37,47.12 4687.96,-353.67z" class="fil3"/><path d="M6141.78 2062.57l386.92 193.43c0,0 58.04,236.23 -403.9,827.42 -461.91,591.16 -3521.98,984.22 -4316.69,846.11 -794.74,-138.11 4333.67,-1866.96 4333.67,-1866.96z" class="fil4"/><path d="M5770.35 1790.91c0,0 -157.89,-302.73 -1089.36,-489.04 -931.6,-186.31 -1688.5,477.41 -2934.3,1152.76 -1245.97,675.35 -1350.71,1234.28 -372.73,1455.5 978.17,221.24 4972.11,-919.86 5135.04,-1502.09 163.07,-582.2 -738.65,-617.13 -738.65,-617.13z" class="fil5"/><path d="M4401.05 2446.11c-30.22,0 3.26,-48.2 73.41,-118.91 1.78,-0.03 3.7,-0.03 5.48,-0.03 53.68,0 101.03,1.96 142.54,5.03 -127.5,80.78 -196.35,113.88 -221.43,113.91zm261.86 -139.8c-46.57,-4.92 -99.58,-8.39 -158.41,-8.76 53.68,-51.46 122.37,-111.56 197.84,-172.48 58.35,40.72 97.46,64.57 125.09,79.3 -51.72,30.91 -106.51,64.81 -164.52,101.94zm194.11 -119.41c-23.46,-10.81 -59.31,-31.09 -130.94,-80.91 76.79,-60.87 159.23,-121.63 239.54,-174.57 -7.43,35.17 -21.34,100.48 -46.54,219.52 -20.2,11.48 -40.91,23.43 -62.06,35.96zm95.35 -54.76c9.7,-45.91 24.57,-115.74 46.88,-221.29l35.06 24.35c49.44,34.3 98.92,59.33 149.03,78.08 -67.4,31.28 -144.16,70.31 -230.97,118.86zm269.76 -136.41c-63.35,-21.26 -125.91,-52.83 -196.86,-102.39 78.56,-48.49 152.89,-87.15 214.63,-108.15 90.85,58.25 162.28,90.54 274.94,111.98 -63.36,11.63 -157.91,38.74 -292.72,98.55zm402.13 -111.67c-178.11,-20.68 -265.24,-57.28 -347.34,-109.68 18.08,-4.28 34.74,-6.59 49.76,-6.59 268.31,0 295.65,88.66 297.58,116.27z" class="fil6"/><path d="M6169.57 2265.39l-29.57 -21.5c-241.97,-176.48 -508.95,-186.1 -526.59,-190.04 0.98,-2.88 55.29,-144.93 51.88,-135.96 221.61,19.38 369.34,26.78 564.72,135.99l23.27 13.01 -10.97 24.65c-20.36,45.87 -40.24,92.89 -58.99,139.67l-13.75 34.19zm-129.46 377.72l-33.77 -38.13c-206.57,-233.51 -470,-292.48 -481.17,-297.47 89.38,-265.11 57.06,-165.05 77.74,-225.13 30.88,6.69 287.37,6.56 538.22,198.52l17.3 13.3c-122.85,339.02 -91.81,270.66 -118.33,348.9zm-542.72 -342.5c-32.34,-5.11 -38.82,-15.44 -249.08,-33.63 -258.76,-22.42 -282.69,-44.02 -314.05,-49.98 1.64,-7.46 1.14,-4.94 0.66,-2.43 -1.77,8.04 -3.57,16.08 64.33,-303.71l35.06 24.35c168.41,116.77 335.71,126.37 539.18,144.48 -0.95,2.8 -81.28,235.7 -76.1,220.92zm-92.78 307.81l-33.45 -25.91c-215.95,-167.91 -452.71,-225.05 -465,-229.83l22.13 -107.01 29.27 7.91c166.64,45.22 347.5,37.78 499.09,68.32l31.68 6.35c-1.93,6.8 -1.3,4.52 -0.63,2.22 2.25,-7.37 4.36,-14.73 -83.08,277.96zm-82.58 330.73l-36.54 -39.5c-170.84,-184.33 -425.72,-257.2 -437.54,-262.57 0.66,-2.83 55.77,-273.04 52.22,-255.96 26.02,10.39 244.85,51.64 481.32,247.04l14.54 11.98c-74.99,288.61 -53.81,217.59 -74.01,299zm-501.55 -310.8c-20.02,-4.76 -78.85,-27 -154.19,-27 -137.87,0 -236.78,74.44 -450.12,74.44l-88.74 -0.79 62.06 -51.17c116.37,-95.72 141.92,-152.65 213.33,-295.7l38.31 -0.61c276.24,-4.65 400.67,41.22 431.4,46.25 -0.66,2.83 -55.45,271.66 -52.06,254.58zm-103.92 531.96c-63.99,-21.69 -83.08,-106.54 -530.45,-85.19 -454.33,21.71 -511.39,-51.12 -565.39,-57.51 443.51,-314.84 176.82,-121.4 470.83,-320.43 139.33,14.57 200.24,16.98 386.61,-31.65 255.85,-66.79 305.64,-9.36 336.65,-8.41 -103.91,524.55 -82.58,422.54 -98.26,503.19zm-1123.78 -156.03c-16.34,-8.86 -70.65,-24.81 -192.5,-113.59 -194.93,-141.89 -392.42,-201.01 -428.14,-217.65 327.11,-280.36 334.88,-288.85 352.65,-304.16 422.48,198.87 437.37,247.42 660.25,306.3l63.52 16.79c-469.69,305.48 -391.79,265.98 -455.78,312.31zm-172.14 158.91l-16.98 -5.48c-325.18,-105.52 -734.9,-211.74 -740.4,-213.25 6.96,-6.03 4.52,-3.99 2.24,-1.98 -7.43,6.56 -14.86,13.09 280.92,-247.26 54.31,24.41 236.79,72.31 436.4,218.41 113.78,83.18 147.39,90.85 183.77,111.69 -40.9,38.42 -18.59,10.26 -145.96,137.87zm-239.38 346.26l-10.5 21.7 -22.79 -6.42c-375.76,-105.59 -856.13,-206.72 -862.27,-208.13 56.56,-56.45 6.8,-21.89 349.91,-346.71 796.51,215.34 664.78,188.93 762.4,216.98 -18.43,24.27 -125.41,133.34 -216.74,322.57zm-927.4 -199.45c-576.2,-116.8 -566.52,-110.82 -642.64,-125.63 52.22,-58.09 3.41,-32.9 343.95,-379.65 303.37,73.38 -89.37,-26.23 646.98,156.48 -54.79,54.21 -59.63,43.34 -348.3,348.8zm-239.06 320.74l-10.02 17.58c-571.17,-96.04 -547.43,-86.59 -622.41,-98.37 34.27,-55.61 -2.09,-27.68 208.33,-337.5 296.91,58.17 -79.51,-19.75 638.28,125.07 0,0 -131.42,148.5 -214.18,293.22zm-653.28 -103.31l-9.23 18.41c-500.23,-65.71 -477.59,-59.68 -548.22,-68.4 40.88,-66.17 -6.8,-10.5 224.97,-363.16 287.37,50 -106.19,-20.91 529.18,92.2 -15.05,22.93 -109.1,146.54 -196.7,320.95zm933.88 -1018.43c303.21,85.17 -61.74,-35.99 619.98,174.78 -6.95,6.11 -4.68,4.05 -2.24,1.98 7.43,-6.61 14.86,-13.25 -283.17,250.17 -598.99,-149.71 -551.81,-133.67 -648.14,-156.88 329.89,-293.27 237.76,-205.03 313.57,-270.05zm414.39 -322.88c548.25,137.65 517.05,150.32 585.08,170.47 -69.33,60 15.05,-11.58 -354.11,305.38 -522.86,-167.91 -534.98,-154 -615.46,-177.13 9.36,-7.3 6.13,-4.84 3.07,-2.38 -10.18,7.85 -20.36,15.71 381.42,-296.33zm272.19 -239.06l12.11 -13.09c143.37,49.94 84.69,8.78 544.83,198.63 -61.58,56.8 16.19,-9.73 -219.65,202.31l-15.99 -6.32c-258.76,-101.09 -537.06,-160.47 -561.81,-167 79.7,-66.1 153.86,-120.47 240.51,-214.52zm192.81 -255.3l10.02 -16c669.45,99.95 183.93,24.01 633.07,98.47 -34.09,48.47 -23.09,85.17 -256.64,335.92 -377.41,-160.34 -485.53,-179.99 -545.34,-200.22 0,0 79.22,-91.52 158.89,-218.17zm1196.02 636.96l-30.04 57.91c-101.35,196.52 -204.95,234.24 -254.9,279.09l-11.48 -1.96c-244.54,-41.33 -316.77,-121.19 -724.56,-316.91 22.45,-20.38 117.01,-103.09 205.08,-189.37l13.27 -13.04c25.86,7.48 378.68,170.69 756.72,182.82l45.91 1.45zm-533.68 -530.24l10.18 -18.43 20.36 4.15c325.53,66.13 454.01,132.5 525.3,158.33 1.93,14.78 -3.57,75.49 26.66,153.92 34.27,88.87 -8.06,130.2 -34.43,202.6l-18.08 -0.11c-393.4,-2.54 -745.26,-167.75 -776.47,-176.52 63.7,-72.77 139.48,-131.07 246.49,-323.94zm114.76 -247.97l8.57 -21.93c36.99,8.22 95.19,6.64 490.2,108.97 -83.24,335.94 -38.47,180.7 -57.7,272.91 -34.59,-12.24 -168.59,-81.49 -494.59,-149.8l-36.52 -7.64c9.23,-19.72 46.22,-89.19 90.03,-202.52zm67.06 -196.23l24.24 3.67c316.32,47.57 441.9,82.95 464.22,87.44 -16.82,56.19 1.77,-9.89 -49,163.97 -478.41,-124.49 -411.96,-91.94 -487.45,-108.76 0.98,-2.91 51.4,-156.17 47.99,-146.33zm685.63 736.54c-187.65,-132.87 -264.92,-157.46 -283,-167.54 33.13,-226.29 47.51,-236.52 55.92,-277.37l28.77 9.57c273.14,90.99 354.43,163.86 467.57,237.19 -1.61,7.67 -1.14,5.07 -0.48,2.48 1.77,-8.28 3.38,-16.53 -66.42,313 -39.29,-20.68 -44.48,-5.48 -202.36,-117.33zm-278.33 -83.45l-7.11 -53.97c50.26,28.43 79.85,27.23 262.65,157.22 166.8,118.67 192.02,111.8 219.31,125.76l-22.76 108.84c-24.91,-4.47 -179.41,-51.99 -416.04,-47.36l-44.29 0.85 17.29 -41.52c59.5,-142.1 6.95,-130.47 -9.04,-249.82zm108.78 -554.96l26.33 7.06c304.51,81.33 456.44,177.8 466.78,182.61l-47.68 219.52c-91.49,-58.04 -182,-139.96 -468.55,-235.02l-26.52 -8.78c0.82,-2.8 53.02,-176.45 49.63,-165.39zm519.13 204.98c238.72,166.98 303.05,221.87 544.83,253l36.54 4.7c-0.98,2.88 -55.13,145.17 -51.75,136.15 -242.74,-21.55 -372.04,-26.57 -561.97,-160.26l-16 -11.16 48.33 -222.43zm1138.48 627.39c1.14,-2.83 29.11,-75.83 71.13,-171.32l14.07 -31.7 28.27 19.46c85.04,58.65 159.7,130.76 220.79,212.59 1.46,-15.36 1.93,-30.28 1.77,-44.76 -61.74,-76.84 -135.59,-144.77 -217.85,-199.74l-20.86 -13.96 10.66 -23.01c12.45,-27.05 25.38,-53.96 38.5,-80.59 -7.94,-5.24 -16.03,-10.31 -24.27,-15.2 -12.43,25.04 -24.57,50.37 -36.52,75.83l-12.93 27.79 -26.5 -14.67c-198.81,-109.58 -349.11,-117.22 -562.47,-135.78 9.22,-22.61 28.29,-70.94 59.33,-143.95 -6.16,-6.79 -13.28,-14.22 -21.52,-22.26 -37.18,86.97 -62.06,150.14 -67.41,163.2l-21.47 -2.48c-305.8,-35.3 -343.8,-117.33 -547.27,-245.52l-17.45 -10.94c10.34,-46.91 26.02,-117.72 48.15,-217.49 -9.04,-2.88 -18.12,-5.76 -27.48,-8.62 -22.95,103.28 -40.24,181.65 -46.56,210.11 -372.86,-180.78 -376.43,-147.65 -491,-187.31 5.5,-16.93 20.36,-63.59 45.24,-138.3 -9.7,-1.35 -19.38,-2.64 -28.92,-3.86 -24.88,74.7 -39.43,121.24 -43.95,135.2 -21.84,-4.46 -142.57,-39.03 -456.44,-86.59l-32.34 -4.89c0,0 3.09,-11.11 6.48,-23.48 -10.84,2.12 -21.66,4.31 -32.5,6.61 -1.93,7.11 -3.54,12.53 -3.54,12.53l-31.83 -4.68c-24.91,5.76 -49.79,12 -74.51,18.69 46.54,6.77 98.1,14.28 98.1,14.28 -20.2,61.03 4.36,-6.98 -48.33,145.88 -313.87,-47.83 -97.94,-14.46 -360.41,-53.6 -17.32,7.11 -34.77,14.39 -52.22,21.87 153.39,23.45 120.89,16.87 402.44,59.68 -25.04,56.5 3.89,8.46 -99.24,223.46 -395.17,-66.19 -37.81,-10.76 -630.35,-98.34 13.09,-22.79 20.23,-35.19 22.63,-39.32 -16.47,8.57 -32.97,17.24 -49.61,26.02 -2.75,4.84 -4.7,8.15 -4.7,8.15l-8.22 -1.24c-14.23,7.53 -28.3,15.17 -42.52,22.87l34.59 5.5c-38.63,52.41 -4.68,24.72 -169.23,230.07 -2.72,-0.8 -78.87,-23.24 -190.88,-51.59 -11.79,6.96 -23.74,13.94 -35.85,20.97 105.69,26.21 173.41,45.85 206.38,54.79l-35.06 35.65c-68.54,69.54 -155.17,137.28 -224.84,192.92 -56.56,-11.37 -145.3,-32.02 -323.25,-60.76 -13.72,8.09 -27.47,16.21 -41.2,24.35 180.36,28.24 294.96,53.26 333.75,60.69 -238.4,185.35 -34.43,23.9 -384.18,298.71 -49.47,-10.87 -181.68,-42.83 -422.01,-88.16 -13.75,7.62 -27.63,15.24 -41.38,22.82 245.99,45.85 396.15,81.2 433.49,89.16 -69.67,60.21 -39.45,23.93 -311.62,270.89 -552.29,-122.42 -418.31,-90.82 -541.29,-117.48 -12.11,7.69 -23.93,15.36 -35.72,22.98 225.79,49.21 -58.68,-15.28 550.02,119.94 -31.52,32.74 -171.16,158.1 -330.84,367.84l-10.5 13.96c-481.83,-85.3 -459.04,-79.3 -531.62,-91.73 26.37,-35.72 110.9,-162.57 301.94,-396.15 -30.22,20.02 -59.49,39.92 -87.61,59.65 -148.23,186.28 -240.04,321.3 -247.12,331.13 0,0 -68.38,-11.05 -118.17,-19.04 -7.91,8.89 -15.5,17.69 -22.95,26.47 49.95,8.06 122.19,19.85 122.19,19.85 -19.07,29.43 -113.28,161.54 -213.81,348.11l-9.23 17.08c-25.04,-2.72 -33.8,-3.7 -54.13,-5.9 1.11,10 2.88,19.86 5.15,29.61l34.27 3.73 -18.75 37.76 -1.46 3.14c4.52,11.31 9.86,22.48 15.84,33.42 17.13,-35.11 29.56,-58.94 35.72,-70.83 171.32,21.5 -24.41,-6.56 548.88,68.8 -9.04,21.68 -65.31,135.17 -111.69,298.18 9.04,2.7 18.27,5.37 27.63,8.02 44.45,-156.06 113.31,-299.11 114.44,-301.89 182.47,28.82 3.39,-5.06 620.48,98.1 -51.41,119.62 -33.29,59.7 -86.97,254.84 10.02,-0.63 20.2,-1.29 30.38,-2.01 50.11,-182.74 35.41,-133.64 86.47,-247.47 70.31,13.85 368.83,65.21 681.75,145.93 21.97,-3.94 44.13,-7.96 66.43,-12.09 -317.91,-86.94 -728.45,-160.79 -733.76,-161.85l22.13 -36.46c82.26,-135.99 199.13,-264.79 205.58,-272.67 393.25,88.07 341.02,74.41 280.76,60.74 -76.15,-17.3 -165.53,-34.56 615.94,153.87 -6.77,17.93 -37.81,86.04 -67.22,192.15 10.34,-2.19 20.68,-4.36 31.02,-6.58 28.61,-100.27 58.04,-164.17 63.36,-177.98 3.54,1.03 147.23,40.43 307.25,93.76 16.82,-4.05 33.45,-8.11 50.43,-12.22 -155.64,-54.81 -339.91,-107.7 -345.39,-109.37l15.5 -31.54c85.2,-171.69 212.38,-307.91 214.5,-310.72 57.54,20.81 475.83,148.39 713.56,294.25 10.37,-2.94 20.7,-5.9 31.04,-8.83 -238.72,-153.73 -643.91,-279.78 -722.79,-309.39 22.29,-21.24 61.9,-63.33 134.8,-124.17l12.74 -10.76c36.7,4.7 118.96,88.43 595.44,66.53 55.13,-2.56 107.33,-4.94 158.39,-4.94 271.06,0 343.61,88.74 359.48,94.74 -4.87,25.75 -10.52,55.26 -24.75,132.98 10.34,-3.33 20.7,-6.64 30.88,-10l19.73 -105.61 38.79 47.78c7.91,9.76 15.84,20.18 23.43,31.15 9.2,-3.02 18.43,-6.05 27.47,-9.07 -43.47,-64.44 -76.6,-90.41 -84.37,-98.39 21.84,-112.17 -9.36,40.14 100.85,-517.07 28.29,13.51 285.76,70.89 463.23,300.38l8.41 10.85c-0.67,3.04 -13.09,59.28 -29.27,142.81 10.52,-3.91 21.02,-7.91 31.52,-11.82 4.87,-24.85 4.52,-23.11 21.18,-106.64 38.31,77.24 36.86,74.22 41.06,82.84 8.73,-3.33 17.3,-6.69 26.02,-10.07 -27,-56.43 -57.22,-97.49 -60.13,-102.2 1.78,-7.59 1.14,-5.05 0.48,-2.48 -1.93,8.19 -3.89,16.37 75.33,-309.21 24.09,26.76 115.9,96.25 244.54,307.94 9.2,-3.99 18.43,-7.93 27.63,-11.9 -127.34,-215.66 -253.26,-315.35 -263.76,-326.45 2.09,-7.14 1.27,-4.73 0.63,-2.33 -2.27,7.72 -4.68,15.47 86.97,-292.02 16.95,7.83 290.28,58.54 504.59,332.03l9.2 11.77c-1.61,6.35 -18.11,63.72 -36.2,136.36 11.48,-5.79 22.63,-11.63 33.76,-17.4 5.34,-20.6 6,-23.3 24.41,-93.21l34.93 58.52 1.3 2.38c8.57,-4.68 16.94,-9.31 25.2,-13.94 -25.7,-43.57 -46.88,-71.53 -51.88,-78.87 103.92,-335.87 101.35,-303.53 120.26,-360.4l31.36 29.24c70.78,66.34 129.78,141.83 176.15,225.1 7.61,-6.64 15.05,-13.27 22,-19.83 -90.35,-159.66 -211.43,-255.11 -218.55,-262.33z" class="fil7"/><path d="M1609.29 3680.98c-101.17,0 -195.88,-2.83 -281.71,-8.62 23.11,-56.11 40.91,-92.91 41.38,-94.31 179.41,28.34 9.2,-3.97 590.1,93.02 -121.87,6.53 -239.54,9.91 -349.78,9.91zm-312.72 -10.9c-224.52,-17.53 -381.61,-56.61 -419.11,-119.86 -7.27,-12.32 -13.41,-24.65 -18.75,-36.96 54.31,6 24.57,0.63 479.87,60.47 -4.52,10.87 -20.87,44.74 -42.02,96.35zm789.37 -6.85c-32.18,-6.08 -51.06,-9.49 -52.2,-9.73l22.13 -36.46c82.26,-135.99 199.13,-264.79 205.58,-272.67 114.6,25.67 191.36,42.73 241.15,53.62 33.44,9.36 170.52,43.79 554.54,136.6 -303.21,62.06 -647.14,105.95 -971.21,128.64zm-81.15 -14.91c-571.17,-96.04 -547.43,-86.59 -622.41,-98.37 30.88,-50 4.52,-32.44 152.09,-253.94 38.63,11.5 86.97,16.66 143.06,16.66 80.8,0 178.11,-10.76 286.07,-28.58 65.79,13.19 151.94,30.51 265.4,53.44 0,0 -131.42,148.5 -214.18,293.22l-10.02 17.58zm-652.48 -102.49c-378.83,-49.77 -457.89,-58.38 -504.59,-63.43 -6.29,-22.13 -9.54,-44.27 -9.86,-66.39 19.07,-34.38 60.95,-103.6 191.2,-301.73 269.12,46.83 -58.84,-12.37 420.08,72.8 -13.09,38.26 0.63,70.86 50.08,95.35 1.64,0.8 3.25,1.54 4.7,2.25 -38.47,57.27 -91.49,141.43 -142.39,242.76l-9.23 18.41zm1776.61 -26.44c-372.88,-103.6 -837.07,-201.38 -843.2,-202.78 37.65,-37.55 28.13,-34.85 118.8,-124.52 88.9,-20.99 179.89,-43.26 271.03,-65.52 95.37,-23.27 190.72,-46.57 283.98,-68.38 435.26,119.83 357.02,105.27 438.48,128.69 -18.43,24.17 -124.62,132.55 -215.77,320.5 -17.61,4.07 -35.41,8.06 -53.33,12zm88.23 -20.2c85.2,-167.91 208.34,-299.95 210.45,-302.7 31.52,11.4 170.84,54.7 329.55,115.44 -131.23,71.84 -320.34,134.72 -540,187.26zm-2369.91 -157.62c19.7,-73.83 69.02,-146.7 138.5,-217.33 -23.9,35.41 -76.6,112.35 -138.5,217.33zm1406.63 -31.57c-78.24,-15.87 -145.8,-29.48 -204.13,-41.17 96.17,-18.06 199.11,-40.54 305.3,-65.2 -29.08,30.41 -62.69,65.57 -101.17,106.37zm1533.19 -15.21c-156.15,-61.82 -294.8,-106.24 -337.64,-122.29 22.29,-21.24 61.9,-63.33 134.8,-124.17l12.74 -10.76c29.27,3.76 87.79,57.91 352.84,68.43 -8.07,67.96 -66.74,131.13 -162.75,188.79zm-366.41 -131.6l-16.98 -5.48c-123.14,-39.98 -258.44,-80.06 -379.33,-114.49 152.09,-34.74 297.07,-64.57 425.4,-83.02 62.56,40.85 88.74,49.1 116.87,65.13 -40.9,38.42 -18.59,10.26 -145.96,137.87zm-1957.31 -5.1c-362.52,-63.89 -349.43,-59.89 -415.54,-71.21 7.43,-9.91 19.09,-26.87 36.39,-51.11 141.09,-113.65 326.8,-219.33 513.98,-310.38 61.9,13.59 160.63,35.44 322.59,71.42 -10.02,10.29 -30.54,29.73 -58.99,58.04 -182.48,108.02 -344.75,216.88 -398.43,303.24zm2486.96 -80.28c-242.29,-8.46 -286.9,-55.13 -329.57,-60.2 41.7,-29.59 77.11,-54.69 107.33,-76.05 127.84,6.64 209.95,44.35 221.42,129.62 0.32,2.24 0.63,4.44 0.82,6.63zm-357.52 -73.53c-11.32,-6.11 -40.72,-15.63 -97.94,-50.14 65.6,-8.28 126.21,-13.11 180.36,-13.61 -54.31,38.76 -48.97,39.56 -82.42,63.75zm-1603.33 -223.38c-2.43,-0.61 -5.03,-1.22 -7.61,-1.85 329.89,-293.27 237.76,-205.03 313.57,-270.05 58.83,16.53 92.44,25.28 113.46,30.2 -104.26,66.79 -261.67,151.99 -419.42,241.7zm-41.7 -9.52c-141.44,-31.36 -237.93,-52.62 -305.16,-67.34 196.7,-93.19 391.15,-169.7 533.36,-221.98 41.89,9.17 69.99,15.57 83.42,18.43 -69.67,60.21 -39.45,23.93 -311.62,270.89zm499.25 -257.41c-62.69,-15.76 -85.17,-18.62 -121.69,-29.14 4.52,-3.57 6.13,-4.81 6.13,-4.84l0 0 0 0c0,0 -1.61,1.25 -3.06,2.46 -1.61,1.22 -3.25,2.46 -3.25,2.46 0,0 16.82,-13.04 105.07,-81.6 8.07,-0.34 15.66,-0.5 22.77,-0.5 118.01,0 92.46,43.31 -5.98,111.16zm-157.72 -37.31c-13.75,-3.01 -33.79,-7.64 -60.63,-13.69 62.41,-22.34 110.74,-38.71 139.48,-48.18 -22.61,17.69 -48.63,38.15 -78.85,61.87z" class="fil8"/><path d="M1327.58 3672.36c-10.34,-0.71 -20.87,-1.48 -31.02,-2.28 21.15,-51.61 37.49,-85.48 42.02,-96.35 -455.3,-59.84 -425.56,-54.47 -479.87,-60.47 -4.36,-10.29 -7.93,-20.57 -11,-30.86 46.7,5.05 125.76,13.67 504.59,63.43l9.23 -18.41c50.9,-101.33 103.92,-185.49 142.39,-242.76 9.39,4.31 19.54,8.06 30.54,11.34 -147.57,221.5 -121.21,203.94 -152.09,253.94 74.99,11.77 51.24,2.33 622.41,98.37l10.02 -17.58c82.76,-144.72 214.18,-293.22 214.18,-293.22 -113.46,-22.93 -199.61,-40.24 -265.4,-53.44 27.95,-4.63 56.72,-9.73 86.15,-15.26 58.33,11.69 125.89,25.3 204.13,41.17 38.47,-40.8 72.08,-75.97 101.17,-106.37 16.5,-3.78 32.97,-7.64 49.48,-11.53 -90.67,89.67 -81.15,86.96 -118.8,124.52 6.13,1.4 470.32,99.18 843.2,202.78 -23.77,5.18 -47.52,10.23 -71.76,15.2 -384.02,-92.81 -521.09,-127.24 -554.54,-136.6 -49.79,-10.89 -126.55,-27.95 -241.15,-53.62 -6.45,7.88 -123.32,136.68 -205.58,272.67l-22.13 36.46c1.13,0.24 20.02,3.65 52.2,9.73 -42.68,2.96 -85.01,5.61 -126.87,7.83 -580.91,-96.99 -410.7,-64.68 -590.1,-93.02 -0.48,1.4 -18.27,38.2 -41.38,94.31zm1854.66 -164.97c91.15,-187.95 197.34,-296.34 215.77,-320.5 -81.47,-23.43 -3.22,-8.86 -438.48,-128.69 21.81,-5.07 43.31,-10.07 64.81,-14.97 120.89,34.43 256.19,74.52 379.33,114.49l16.98 5.48c127.37,-127.61 105.06,-99.44 145.96,-137.87 -28.13,-16.03 -54.31,-24.28 -116.87,-65.13 15.36,-2.17 30.38,-4.21 45.11,-6.06 57.22,34.51 86.62,44.03 97.94,50.14 33.45,-24.2 28.11,-24.99 82.42,-63.75 3.06,-0.03 6.13,-0.03 9.04,-0.03 15.2,0 29.75,0.34 43.82,1.06 -30.22,21.37 -65.63,46.46 -107.33,76.05 42.68,5.07 87.29,51.74 329.57,60.2 0.79,9.49 0.64,18.88 -0.5,28.19 -265.06,-10.52 -323.57,-64.68 -352.84,-68.43l-12.74 10.76c-72.9,60.84 -112.51,102.94 -134.8,124.17 42.84,16.05 181.5,60.47 337.64,122.29 -9.55,5.79 -19.57,11.48 -29.91,17.14 -158.7,-60.74 -298.02,-104.05 -329.55,-115.44 -2.11,2.75 -125.25,134.8 -210.45,302.7 -11.63,2.78 -23.11,5.48 -34.9,8.2zm-2344.39 -91.38c-0.47,-24.86 2.91,-49.72 9.39,-74.44 61.9,-104.97 114.6,-181.92 138.5,-217.33 29.41,-29.93 62.56,-59.47 98.44,-88.47 -17.3,24.24 -28.96,41.2 -36.39,51.11 66.11,11.32 53.02,7.32 415.54,71.21 -6.29,9.97 -10.97,19.65 -14.2,28.98 -478.92,-85.17 -150.96,-25.97 -420.08,-72.8 -130.25,198.13 -172.14,267.35 -191.2,301.73zm1023.91 -561.15c28.45,-28.31 48.97,-47.75 58.99,-58.04 -161.96,-35.98 -260.69,-57.83 -322.59,-71.42 14.86,-7.22 29.56,-14.33 44.43,-21.36 67.24,14.72 163.72,35.98 305.16,67.34 272.17,-246.96 241.94,-210.69 311.62,-270.89 -13.43,-2.85 -41.54,-9.26 -83.42,-18.43 18.61,-6.8 36.07,-13.14 52.7,-19.09 26.84,6.05 46.88,10.68 60.63,13.69 30.22,-23.72 56.24,-44.18 78.85,-61.87 18.93,-6.29 29.27,-9.57 29.27,-9.57 11.79,-0.9 22.64,-1.54 32.81,-1.91 -88.26,68.57 -105.07,81.6 -105.07,81.6 0,0 1.64,-1.24 3.25,-2.46 1.45,-1.21 3.06,-2.46 3.06,-2.46 0,0.03 -1.61,1.27 -6.13,4.84 36.52,10.52 58.99,13.38 121.69,29.14 -11.63,8.06 -24.41,16.47 -38.13,25.22 -21.02,-4.92 -54.63,-13.67 -113.46,-30.2 -75.81,65.02 16.31,-23.22 -313.57,270.05 2.59,0.63 5.18,1.24 7.61,1.85 -42.84,24.38 -85.83,49.18 -127.69,73.96zm469.69 -374.87l0 0 0 0z" class="fil9"/><path d="M4730.28 2821.38c-48.31,0 -94.05,-4.02 -135.91,-12.66 -128,-26.42 -146.75,-80.12 -98.1,-147.81 84.19,-20.86 144.95,-27.65 189.41,-27.65 82.29,0 109.44,23.26 129.14,23.87 -12.43,62.77 -23.11,116.56 -32.31,162.78 -17.61,0.98 -35.09,1.48 -52.23,1.48zm81.98 -3.52c8.54,-43.76 18.56,-94.1 30.04,-152.2 17.32,8.28 120.73,33.06 239.06,103.79 -93.73,24.46 -184.56,41.46 -269.09,48.41zm302.23 -57.32c-133.03,-83.45 -258.28,-119.73 -266.54,-123.46 0.66,-2.65 49.15,-240.57 52.22,-255.96 26.17,10.39 244.85,51.64 481.32,247.04l14.54 11.98c-2.59,9.68 -5.03,18.93 -7.27,27.79 -91.33,35.91 -183.93,67.53 -274.28,92.6zm331 -115.44c-9.2,-8.28 -15.02,-13.33 -16.94,-15.39 0.95,-3.49 1.27,-4.7 1.27,-4.76l0 0 0 0c0,0.03 -0.31,1.25 -0.64,2.43 -0.31,1.22 -0.63,2.41 -0.63,2.41 0,0 10.34,-35.11 87.6,-294.43 11.63,5.37 143.34,30.81 293.98,134.09 -111.69,61.81 -236.44,122.56 -364.64,175.65zm-625.16 -15.94c0,0 0.16,-0.26 0.16,-0.79 -20.02,-4.76 -78.85,-27 -154.19,-27 -48.15,0 -91.49,9.07 -136.73,20.89 69.81,-70.23 195.72,-151.36 339.41,-231.13 -11.79,57.48 -48.65,238.03 -48.65,238.03zm584.29 -20.73l-33.45 -25.91c-182,-141.46 -378.7,-204.32 -443.51,-223.43 50.9,-27.29 103.28,-54.18 155.48,-80.25 128.67,18.61 259.42,20.09 373.52,43.07l31.68 6.35c-0.95,3.39 -1.3,4.52 -1.3,4.52 0,0 0.34,-1.14 0.66,-2.3 0.32,-1.16 0.63,-2.3 0.63,-2.3 0,0 -9.86,33.4 -83.71,280.26zm432.19 -153.89c-158.41,-110.4 -303.39,-143.34 -311.62,-147.02 89.38,-265.11 57.06,-165.05 77.74,-225.13 30.22,6.51 275.24,6.56 520.11,185.01 -74.01,58.3 -172.77,123.06 -286.24,187.13zm-339.75 -153.26c0,0 0.15,-0.21 0.34,-0.66 -32.34,-5.11 -38.82,-15.44 -249.08,-33.63 -46.06,-4 -84.7,-7.96 -117.33,-11.82 145.94,-71.47 287.69,-135.15 390.81,-180.04 16.95,1.51 34.24,3.02 51.69,4.57 -0.95,2.7 -76.44,221.58 -76.44,221.58zm649.41 -52.74l-6.45 -4.63c-241.97,-176.48 -508.95,-186.1 -526.59,-190.04 0.16,-0.69 3.41,-9.17 8.25,-21.63 37.81,-16 59.63,-24.91 59.63,-24.91 0,0 75.33,-10.48 178.77,-10.48 113.31,0 260.37,12.61 378.36,65.5 5.34,2.33 9.7,5.02 13.28,8.06l-9.39 21.13c-16.82,37.97 -33.29,76.68 -49.13,115.47 -13.91,13.28 -29.59,27.18 -46.72,41.52zm-562.63 -196.87c0,0 0,-0.13 0,-0.42 -1.77,-0.16 -3.7,-0.34 -5.63,-0.5 2.41,-1.03 4.69,-2.04 7.12,-3.04 -0.98,2.54 -1.48,3.96 -1.48,3.96z" class="fil8"/><path d="M4782.5 2819.9c9.2,-46.22 19.88,-100 32.31,-162.78 -19.7,-0.61 -46.85,-23.87 -129.14,-23.87 -44.45,0 -105.22,6.8 -189.41,27.65 8.89,-12.43 20.2,-25.35 33.29,-38.65 45.24,-11.82 88.58,-20.89 136.73,-20.89 75.33,0 134.17,22.24 154.19,27 0,0.53 -0.16,0.79 -0.16,0.79 0,0 36.86,-180.54 48.65,-238.03 19.22,-10.74 38.95,-21.42 58.68,-32.05 64.81,19.11 261.51,81.97 443.51,223.43l33.45 25.91c73.85,-246.86 83.71,-280.26 83.71,-280.26 0,0 -0.31,1.14 -0.63,2.3 -0.32,1.17 -0.66,2.3 -0.66,2.3 0,0 0.34,-1.14 1.3,-4.52l-31.68 -6.35c-114.1,-22.98 -244.85,-24.46 -373.52,-43.07 16,-7.98 32,-15.87 47.86,-23.67 32.63,3.86 71.26,7.82 117.33,11.82 210.26,18.19 216.74,28.53 249.08,33.63 -0.19,0.45 -0.34,0.66 -0.34,0.66 0,0 75.49,-218.88 76.44,-221.58 -17.45,-1.56 -34.74,-3.07 -51.69,-4.57 20.36,-8.89 39.26,-17.03 56.4,-24.38 1.93,0.16 3.86,0.34 5.63,0.5 0,0.3 0,0.42 0,0.42 0,0 0.5,-1.43 1.48,-3.96 13.41,-5.74 25.54,-10.87 36.35,-15.47 -4.84,12.46 -8.09,20.94 -8.25,21.63 17.63,3.94 284.62,13.56 526.59,190.04l6.45 4.63c-7.59,6.24 -15.33,12.5 -23.43,18.87 -244.88,-178.46 -489.89,-178.5 -520.11,-185.01 -20.68,60.07 11.64,-39.98 -77.74,225.13 8.22,3.68 153.2,36.62 311.62,147.02 -8.72,4.99 -17.63,9.94 -26.68,14.91 -150.64,-103.28 -282.35,-128.72 -293.98,-134.09 -77.26,259.31 -87.6,294.43 -87.6,294.43 0,0 0.31,-1.19 0.63,-2.41 0.32,-1.19 0.64,-2.41 0.64,-2.43 0,0.06 -0.31,1.27 -1.27,4.76 1.93,2.06 7.75,7.11 16.94,15.39 -18.9,7.8 -37.65,15.39 -56.71,22.85 2.24,-8.86 4.68,-18.11 7.27,-27.79l-14.54 -11.98c-236.47,-195.4 -455.15,-236.65 -481.32,-247.04 -3.07,15.39 -51.56,253.31 -52.22,255.96 8.25,3.73 133.51,40.01 266.54,123.46 -11,3.04 -22.13,6.06 -33.13,8.91 -118.33,-70.73 -221.74,-95.51 -239.06,-103.79 -11.48,58.09 -21.5,108.44 -30.04,152.2 -10.03,0.82 -19.89,1.51 -29.75,2.04zm647.3 -194.96l0 0 0 0zm763.38 -417.94c15.84,-38.79 32.31,-77.5 49.13,-115.47l9.39 -21.13c30.54,25.49 5.47,74.86 -58.52,136.6z" class="fil9"/><path d="M2880.48 2277.55c-33.95,-0.03 -61.74,-3.94 -82.42,-12.32 -36.38,-14.81 -45.43,-37.23 -33.13,-65.18 102.46,25.99 182.44,47.11 245.33,64.43 -49.45,8.46 -93.1,13.07 -129.78,13.07zm198.31 -26.47c-126.55,-38.84 -237.42,-65.92 -295.62,-79.64 46.72,-57.93 159.52,-132.44 298.53,-210.19 61.27,17.05 120.74,32.97 432.19,161 -160,55.98 -310.82,101.83 -435.1,128.82zm476.48 -143.47c-228.88,-97.09 -357.68,-141.91 -436.71,-166.69 132.84,-72.51 285.6,-146.76 426.38,-212.01 91.15,13.11 -28.45,-4.69 272.96,45.32 -33.76,48.02 -23.27,84.46 -250.04,328.89 -4.2,1.5 -8.38,3.01 -12.59,4.49zm73.85 -26.81c55.61,-58.67 121.71,-126.68 208.02,-282.32l10.18 -18.43 20.36 4.15c129.15,26.23 227.24,52.52 303.21,76.28 -170.5,75.39 -359.3,152.91 -541.77,220.31zm582.83 -238.64c-75.81,-24.53 -178.11,-53.09 -313.57,-81.49l-36.52 -7.64c9.23,-19.72 46.22,-89.19 90.03,-202.52l0.8 -2.17c14.86,-6.24 26.84,-11.26 35.72,-14.99 46.72,7.11 147.73,22.71 462.26,104.2 -10.65,42.63 -19.06,77.37 -25.86,105.69 -65.29,31.57 -137.07,64.94 -212.86,98.91zm-380.15 -94.93c-192.15,-32.18 -206.38,-35.61 -238.4,-40.69 129.96,-59.5 246.01,-109.94 321.8,-142.26 -6.93,18.88 -20.83,52.49 -83.4,182.95zm623.87 -19.09c10.69,-46.24 17.14,-59.5 21.84,-82.23l28.77 9.57c19.38,6.48 37.81,12.85 55.42,19.17 -32.63,16.94 -68.04,34.87 -106.04,53.49zm140.78 -71.87c-26.18,-9.73 -54.29,-19.65 -84.51,-29.69l-26.52 -8.78c0.5,-1.8 22,-73.27 36.54,-121.82 8.73,-0.07 17.27,-0.13 25.86,-0.13 63.83,0 121.05,2.35 163.07,8.31 24.24,8.09 47.04,16.13 68.54,24.03 6.13,17.11 -64.65,64.68 -182.98,128.08zm-138.03 -46.91c-209.13,-54.42 -314.18,-78.83 -372.54,-90.48 95.35,-7.83 260.21,-19.81 405.67,-22.47 -5,16.92 -14.23,48.39 -33.13,112.96z" class="fil8"/><path d="M3010.26 2264.48c-62.88,-17.32 -142.87,-38.44 -245.33,-64.43 4.02,-9 10.15,-18.57 18.24,-28.61 58.2,13.72 169.07,40.8 295.62,79.64 -23.93,5.19 -46.69,9.68 -68.54,13.41zm503.64 -142.23c-311.46,-128.03 -370.93,-143.95 -432.19,-161 12.11,-6.77 24.41,-13.54 36.86,-20.33 79.03,24.78 207.83,69.59 436.71,166.69 -13.75,4.94 -27.63,9.86 -41.38,14.65zm53.97 -19.14c226.77,-244.43 216.27,-280.87 250.04,-328.89 -301.41,-50 -181.81,-32.21 -272.96,-45.32 16.31,-7.59 32.47,-15.07 48.47,-22.37 32.02,5.08 46.24,8.51 238.4,40.69 62.56,-130.46 76.46,-164.07 83.4,-182.95 13.91,-5.98 26.52,-11.29 37.49,-15.94l-0.8 2.17c-43.81,113.33 -80.8,182.79 -90.03,202.52l36.52 7.64c135.46,28.4 237.77,56.96 313.57,81.49 -13.59,6.11 -27.31,12.19 -41.06,18.33 -75.97,-23.77 -174.07,-50.06 -303.21,-76.28l-20.36 -4.15 -10.18 18.43c-86.3,155.64 -152.41,223.65 -208.02,282.32 -20.52,7.62 -40.88,15 -61.27,22.32zm856.96 -359.87c6.8,-28.32 15.2,-63.07 25.86,-105.69 -314.52,-81.49 -415.53,-97.09 -462.26,-104.2 11.63,-4.89 17.95,-7.51 17.95,-7.51 0,0 30.54,-2.91 79.51,-6.95 58.36,11.66 163.41,36.06 372.54,90.48 18.91,-64.57 28.13,-96.04 33.13,-112.96 10.36,-0.22 20.39,-0.35 30.41,-0.43 -14.54,48.55 -36.04,120.02 -36.54,121.82l26.52 8.78c30.22,10.05 58.33,19.96 84.51,29.69 -11.13,5.98 -22.8,12.11 -34.74,18.38 -17.61,-6.32 -36.04,-12.7 -55.42,-19.17l-28.77 -9.57c-4.7,22.74 -11.16,35.99 -21.84,82.23 -10.18,5 -20.36,10.02 -30.85,15.1zm354.61 -215.06c-21.5,-7.91 -44.29,-15.94 -68.54,-24.03 33.29,4.73 57.06,11.76 66.92,21.68 0.8,0.72 1.3,1.51 1.61,2.35z" class="fil9"/></g></svg>