<svg xmlns="http://www.w3.org/2000/svg" xmlns:xlink="http://www.w3.org/1999/xlink" xmlns:xodm="http://www.corel.com/coreldraw/odm/2003" width="639.999" height="639.999" version="1.1" viewBox="0 0 6666.66 6666.66" xml:space="preserve" style="shape-rendering:geometricPrecision;text-rendering:geometricPrecision;image-rendering:optimizeQuality;fill-rule:evenodd;clip-rule:evenodd"><defs><style type="text/css">.fil1{fill-rule:nonzero}.fil6{fill:#3c758b}.fil6,.fil8{fill-rule:nonzero}.fil1{fill:#4387aa}.fil8{fill:#4d8097}.fil0,.fil3,.fil5{fill-rule:nonzero}.fil5{fill:#528ca9}.fil0{fill:#5ba2ce}.fil3{fill:#68b3d8}.fil2,.fil4,.fil7{fill-rule:nonzero}.fil7{fill:#d7c9bb}.fil4{fill:#e5ddd1}.fil2{fill:#f2ce8f}</style></defs><g id="Layer_x0020_1"><metadata id="CorelCorpID_0Corel-Layer"/><path d="M2091.1 1423.53c-24.84,316.67 -28.72,519.27 -44.19,1821.17 -2.54,216.55 -5.32,433.09 -7.86,649.58 -2.54,219.84 -2.36,221.42 -3.29,253.86 -26.96,939.25 -40.3,1408.89 -63.87,1536.17 -7.19,39.09 -33.12,171.93 -13.01,338.57 16.73,138.2 58.3,243.8 74.18,281.73 21.63,51.56 44.1,93.64 62.35,124.75 42.07,-12.45 85.84,-23.98 131.3,-34.2 269.27,-60.37 516.31,-57.39 720.87,-31.36 -18.5,-904.71 30.67,-1357.91 86.35,-1603.86 11.15,-49.11 54.41,-230.46 78.75,-480.2 21.96,-225.78 9.29,-310.02 15.12,-499 13.09,-429.67 95.39,-540.35 205.56,-1319.52 17.15,-121.16 29.4,-219.25 36.42,-277.04 63.45,227.95 82.46,414 88.29,540.91 6.59,141.69 -3.72,204.13 0,436.64 3.46,208.44 14.79,351.22 19.26,422.28 30.93,493.33 -81.53,637.85 -71.98,1257.12 2.96,193.98 20.87,761.49 69.79,1025 4.06,21.83 19.01,98.86 21.38,203.35 2.87,123.39 -13.09,224.09 -26.53,288.98 251.61,99.65 430.98,80.75 524.34,60.48 77.31,-16.8 172.87,-51.31 241.13,-75.98 117.19,-42.26 212.07,-84.09 278.31,-115.15 -7.02,-144.27 -16.31,-351.37 -24.84,-601.04 -16.47,-482.84 -24.58,-729.14 -13.6,-967.98 12.42,-268.8 28.48,-271.27 52.81,-686.16 12.93,-219.98 17.74,-377.99 24,-590.14 21.29,-720.11 1.35,-797.16 28.81,-1192.32 23.23,-334.83 51.2,-352.49 64.04,-639.93 13.85,-309.06 -1.27,-564.14 -16.98,-735.91 3.55,-107.64 7.18,-215.28 10.73,-322.92 -321.15,-83.73 -741.57,-162.22 -1237.19,-175.65 -494.6,-13.44 -917.81,41.82 -1242.76,107.72 1.27,108.06 2.45,216.13 3.63,324.19 -37.17,280.76 -58.63,513.36 -71.31,675.83z" class="fil0"/><path d="M2077.67 6052.01c-11.91,-991.33 120.31,-2040.3 -27.63,-3066.61 122.51,2915.99 -195.93,2828.2 134.17,3420.1 8.79,-2.17 17.57,-4.33 26.53,-6.44 -38.87,-117.75 -98.18,-227.88 -133.07,-347.06z" class="fil1"/><path d="M3691.59 977.26c244.09,-3.8 502.63,-25.18 773.08,-84.15 13.1,194.16 27.04,417.72 37.94,611.28 -673.47,-28.72 -666.96,-10.65 -811.02,-527.13zm-331.03 905.98c-168.89,-44.27 -168.3,-569.63 -176.5,-921.1 62.44,4.31 124.96,7.94 187.57,10.56 8.11,266.65 55.76,603.17 -11.07,910.54zm1144.92 -999.51c42.16,-10.22 84.07,-21.54 125.55,-33.96 -1.02,-12.08 -2.03,-23.83 -3.04,-35.23 -441.12,119.81 -954.56,144.39 -1446.97,106.29 9.55,-168.64 -63.79,-295.63 65.22,-337.96l-0.25 -0.09c265.72,11.32 487.59,2.28 662.48,-5.49 178.44,-7.94 412.81,-24.33 687.66,-60.33 -325.96,-85.59 -603.93,-123.86 -808.23,-142.37 -382.82,-34.64 -685.72,-16.22 -966.81,1.94 -253.64,16.47 -464.95,41.91 -615.93,63.2 129.94,30.5 312.69,68.52 533.63,98.26 147.1,19.77 284.73,32.27 413.15,39.88 -51.96,38.7 -13.6,187.99 -21.29,339.22 -317.17,-12.84 -650.15,-65.14 -969.09,-247.05 0.17,15.04 0.34,30.08 0.51,45.12 142.62,60.83 300.02,157.74 501.36,193.74 11.74,542.25 64.47,649.72 -584.92,698.31 -0.67,13.09 0,0 -2.02,39.03 626.49,-48.33 613.98,-83.9 642.63,-728.89 109.92,13.52 254.15,29.07 411.89,40.81 14.28,290.56 -69.2,816.09 195.34,982.36 21.29,51.7 27.54,144.98 58.04,298.5 9.97,-99.36 15.29,-211.56 -5.74,-329.26 159.35,-276.2 35.23,-580.02 50.27,-934.96 89.31,1.6 88.13,4.65 243.33,2.7 42.41,558.22 269.27,554 829.69,563.46 -82.29,1552.33 -169.99,3137.35 -21.37,4702.17 6.76,-3.1 5.41,-2.42 33.2,-15.31 -219.93,-3251.21 118.45,-3829.88 -8.28,-5344.11z" class="fil1"/><path d="M3395.62 758c0,59.48 -33.04,107.72 -73.84,107.72 -40.81,0 -73.85,-48.24 -73.85,-107.72 0,-59.39 33.04,-107.64 73.85,-107.64 40.81,0 73.84,48.24 73.84,107.64z" class="fil2"/><path d="M3807.26 1005.9c44.28,-4.22 88.63,-8.45 132.91,-12.67 13.26,-42.5 27.2,-104.43 25.68,-179.54 -2.2,-107.22 -34.72,-189.85 -57.37,-236.4 -15.89,-2.03 -33.46,-3.38 -52.55,-3.55 -36.67,-0.25 -68.78,4.06 -95.22,9.55 20.36,36.5 42.84,86.69 56.44,148.96 26.19,119.55 5.57,219.84 -9.89,273.66z" class="fil3"/><path d="M2596.6 569.34c3.63,-9.38 8.37,-23.06 20.45,-35.06 5.74,-5.74 11.32,-9.46 15.21,-11.66 -21.89,-8.54 -50.27,-17.24 -84.07,-22.14 -25.94,-3.72 -49.26,-4.31 -68.77,-3.55 -12.08,11.41 -29.15,30.24 -42.24,57.37 -15.13,31.09 -17.49,56.69 -19.69,96.83 -3.55,65.73 9.72,131.38 27.88,194.75 2.7,9.55 5.83,19.6 13.52,25.94 4.48,3.63 10.14,5.66 15.55,7.61 39.63,13.85 98.09,42.07 139.91,39.46 -7.43,-20.87 -22.22,-37.94 -28.81,-60.92 -9.3,-32.02 -15.04,-65.06 -17.15,-98.26 -4.06,-64.47 5.32,-129.86 28.22,-190.36z" class="fil3"/><path d="M2945.97 6363.62c-0.26,-0.06 -0.51,-0.06 -0.84,-0.13 0.33,0.07 0.59,0.07 0.84,0.13zm-1.01 -0.13c-51.2,-6.5 -105.11,-11.46 -161.38,-14.37l0 -0.07c56.27,2.97 110.18,7.93 161.38,14.44zm2.53 -2.35c-2.62,-131.51 -3.89,-253.48 -3.89,-366.65 0,113.17 1.27,235.13 3.89,366.65z" class="fil4"/><path d="M2947.57 6363.8l0 0c-0.5,-0.07 -1.09,-0.13 -1.61,-0.19 -0.26,-0.06 -0.51,-0.06 -0.85,-0.12 -0.08,0 -0.08,0 -0.17,0 -51.2,-6.51 -105.11,-11.46 -161.38,-14.44 4.23,-186.97 8.45,-374.01 12.68,-561.01 -30,44.08 -66.75,91.9 -111.61,140.52 -81.45,88.31 -164.5,151.96 -234.12,197.02 76.54,-118.67 156.3,-262.8 225.83,-432.59 114.24,-279.1 164.09,-537.77 184.78,-745.34l0 -0c4.31,-43.18 7.35,-84.11 9.46,-122.59 -17.57,34 -38.11,70.85 -61.85,109.71l-0 0c-40.64,66.45 -90.99,138.75 -153.1,212.65 -100.29,119.47 -201.92,208.04 -285.91,271.37 157.91,-241.32 259.05,-457.05 323.09,-614.4 5.83,-14.23 12.76,-31.32 20.36,-51.11 29.31,-75.31 70.72,-189.54 111.69,-332.38 31.69,-14.64 67.48,-141.74 111.07,-153.52 19.26,-5.21 38.28,-7.73 56.61,-7.73 42.08,0 75.65,110.6 106.91,135.43 -24.33,189.4 -56.19,323.71 -65.57,364.87l0 0c0,0.22 0,0.45 -0.08,0.68 0,0.02 0,0.04 0,0.04 0,0.02 0,0.05 0,0.07 -47.57,210.02 -90.15,570.85 -90.23,1233.77 0,113.17 1.26,235.13 3.88,366.65 0,0.86 0.09,1.79 0.09,2.66z" class="fil5"/><path d="M3033.84 4760.62c0.08,-0.23 0.08,-0.46 0.08,-0.68 0,0.22 0,0.45 -0.08,0.68z" class="fil5"/><path d="M3126.02 3901.77c0,-36.59 0.34,-75.81 1.78,-121.02 13.09,-429.67 95.39,-540.35 205.56,-1319.52 3.04,-21.37 5.91,-41.99 8.62,-61.76 -2.7,19.77 -5.57,40.39 -8.62,61.76 -110.18,779.17 -192.47,889.85 -205.56,1319.52 -1.44,45.21 -1.78,84.43 -1.78,121.02z" class="fil4"/><path d="M3033.92 4759.94c9.38,-41.16 41.23,-175.48 65.57,-364.87 -31.26,-24.83 -70.04,-38.2 -112.12,-38.2 -18.33,0 -37.34,2.52 -56.61,7.73 -43.6,11.78 -74.18,41.65 -105.87,56.3 46.47,-161.68 92.43,-360.01 119.81,-580.04 10.31,-82.68 20.79,-191.1 54.07,-462.39 26.11,-213.84 51.2,-351.31 63.87,-424.48 22.05,-127.07 43.26,-234.54 60.07,-315.31 -22.56,3.38 -48.07,5.66 -76.21,5.66 -12.67,0 -25.85,-0.51 -39.54,-1.52 -111.87,-8.7 -196.27,-52.47 -243.84,-82.63 2.28,0 4.56,0 6.93,0 57.71,0 146,-7.27 245.19,-45.54 86.09,-33.2 149.37,-77.73 190.1,-111.53 -31.34,-35.91 -63.37,-75.79 -95.05,-119.89 -71.39,-99.44 -123.19,-196.02 -161.2,-281.01 32.7,39.03 110.85,121.33 239.7,161.12 55.76,17.23 106.46,22.05 146.76,22.05 12.42,0 23.91,-0.51 34.22,-1.19 -4.23,33.37 -8.37,66.75 -12.51,100.04 -4.39,34.14 -9.46,72.75 -15.29,115.24 -2.7,19.77 -5.57,40.39 -8.62,61.76 -110.18,779.17 -192.47,889.85 -205.56,1319.52 -1.44,45.21 -1.78,84.43 -1.78,121.02 0,33.02 0.26,63.9 0.26,95.11 0.08,78.83 -1.69,159.83 -13.6,282.86 -24.33,249.74 -67.59,431.09 -78.75,480.2z" class="fil5"/><path d="M4551.7 3397.29c0.17,-4.9 0.25,-9.88 0.42,-14.78 21.29,-720.11 1.35,-797.16 28.81,-1192.32 23.23,-334.83 51.2,-352.49 64.04,-639.93l0 0c-12.84,287.43 -40.81,305.09 -64.04,639.93 -27.46,395.16 -7.52,472.21 -28.81,1192.32 -0.17,4.9 -0.26,9.89 -0.42,14.78zm98.68 -2089.51c0,-200.75 -10.98,-368.97 -22.39,-493.42 11.41,124.45 22.39,292.67 22.39,493.42zm-22.39 -493.42l0 0c2.96,-90.32 6,-180.64 9.04,-270.87 -3.04,90.24 -6.08,180.56 -9.04,270.87z" class="fil4"/><path d="M4328.05 5634.8c4.15,-166.98 13.43,-326.9 26.28,-479.11 -30.5,64.17 -67.18,132.33 -111.53,202.52 -4.06,6.38 -8.11,12.72 -12.26,19 -11.32,-22.33 -22.81,-43.79 -31,-62.73 -6.17,-14.49 -25.94,-48.54 -47.06,-73.49 14.36,-41.86 28.05,-85.46 40.64,-130.75 29.31,-104.74 50.44,-209.02 102.74,-895.2 30.07,-394.66 45.02,-591.98 58.29,-888.62 13.94,-312.1 19.35,-585.09 20.87,-807.64 -66.66,41.82 -166.1,93.19 -294.96,123.44 -81.28,19.01 -154.1,24.93 -213.42,25.35 64.29,-39.88 134.85,-90.06 206.66,-152.93 140.68,-123.11 237.16,-251.87 301.72,-355.36 27.38,-253.39 39.03,-456.58 41.82,-619.73 27.46,0.5 55.85,0.92 85.08,1.43 -68.94,1300.04 -141.61,2623.07 -76.21,3937.91l0 0 -0 0c12.76,255.19 30.67,509.93 54.83,764.26 6.76,-3.1 5.41,-2.42 33.2,-15.31l0 0c-45.37,21.26 -104.52,47.65 -174.72,75.73 -7.35,-127.3 -12,-259.42 -13.18,-396.09 -0.85,-92.85 -0,-183.76 2.19,-272.67l0.07 -0.13 -0.07 0.13zm185.71 593.03c-19.18,-283.16 -34.13,-546.3 -45.46,-791.3 -119.04,-2568.06 152.93,-3170.47 37.18,-4552.8 42.16,-10.22 84.07,-21.54 125.55,-33.96 -1.02,-12.09 -2.03,-23.83 -3.05,-35.23 -78.4,21.28 -159.09,39.54 -241.47,55 -1.09,-20.02 -1.94,-40.72 -2.96,-62.09 -3.37,-76.72 -5.57,-153.61 -7.35,-230.49 89.06,-7.6 175.49,-26.61 261.42,-52.21 -0.26,6.25 -0.42,12.5 -0.59,18.76 -3.04,90.23 -6.09,180.55 -9.04,270.87l0 0c11.41,124.46 22.39,292.67 22.39,493.42 0,76.38 -1.6,157.4 -5.4,242.48l0 0c-12.84,287.44 -40.81,305.09 -64.04,639.93 -27.46,395.16 -7.52,472.22 -28.81,1192.32 -0.17,4.9 -0.26,9.89 -0.42,14.78 -6.08,204.8 -10.9,360.52 -23.57,575.36l0 0c-24.33,414.89 -40.39,417.36 -52.8,686.15 -3.47,75.57 -4.98,151.89 -4.98,236.21 0,142.76 4.39,308.43 11.83,532.25l0 0c2.03,61.83 4.31,128.08 6.76,199.52l0 0c8.54,249.67 17.83,456.77 24.84,601.04zm-11.15 -4723.44c-29.74,-1.27 -58.05,-2.45 -85.26,-3.63 1.1,-123.78 -3.04,-223.05 -9.29,-302.89 -2.79,-36.5 -11.57,-141.01 -19.61,-289.04 25.35,-4.98 50.7,-10.14 76.22,-15.72 13.09,194.16 27.03,417.72 37.94,611.28z" class="fil5"/><path d="M4425.72 5478.87l-0 0 0 -0c-65.4,-1314.83 7.26,-2637.86 76.2,-3937.9 -29.23,-0.51 -57.62,-0.93 -85.08,-1.43 0.25,-13.18 0.43,-26.11 0.5,-38.79 27.2,1.18 55.51,2.37 85.26,3.63 -10.91,-193.57 -24.85,-417.12 -37.94,-611.28 -25.52,5.58 -50.87,10.73 -76.22,15.72 -0.67,-12.76 -1.34,-25.85 -1.94,-39.29 82.38,-15.46 163.07,-33.71 241.47,-55 1.02,11.4 2.03,23.15 3.05,35.23 -41.48,12.42 -83.39,23.74 -125.55,33.96 115.75,1382.33 -156.22,1984.75 -37.18,4552.8 11.32,245 26.28,508.15 45.46,791.3l0 0c-27.8,12.89 -26.44,12.21 -33.2,15.31 -24.17,-254.34 -42.07,-509.08 -54.83,-764.27z" class="fil6"/><path d="M4013.41 5565.09c22.81,-43.94 45.88,-91.59 68.35,-142.88l0 -0.02c24.67,-56.13 48.58,-116.59 70.72,-181.21 21.12,24.95 86.03,22.54 92.2,37.03 8.19,18.94 -25.45,76.86 -14.13,99.2 -109.08,168.17 -229.73,296.08 -334.92,390.17 35.23,-54.52 76.12,-122.19 117.78,-202.29l0 0z" class="fil5"/><path d="M2824.72 3118.48c-3.8,359.42 -71.48,714.71 -138.9,1067.72 -28.64,150 -57.37,300.48 -104.85,445.62 -95.39,291.97 -261.92,579.78 -448.05,823.22 26.02,-379.94 271.72,-701.76 391.78,-1059.68 139.32,-415.24 222.71,-846.59 300.02,-1276.89z" class="fil3"/><path d="M4133.05 4321.87c93.44,-512.24 162.64,-1033.91 120.31,-1552.84 -74.86,705.24 -222.97,1402.75 -441.04,2077.63 -26.28,-200.34 -52.56,-400.69 -78.91,-601.03 -4.39,111.85 -8.87,223.71 -13.26,335.57 -14.62,369.93 -77.06,719.61 -123.02,1083.25 273.92,-408.91 447.63,-858.33 535.92,-1342.59z" class="fil3"/><path d="M3033.84 4760.72c0,-0.01 0,-0.04 0,-0.06 0,-0.01 0,-0.02 0,-0.04 0,0.04 0,0.07 0,0.1z" class="fil7"/><path d="M3033.84 4760.73c0,-0.02 0,-0.05 0,-0.07 0,0.02 0,0.05 0,0.06l0 0.01z" class="fil8"/><path d="M4488.92 5626.79c-2.45,-71.44 -4.73,-137.69 -6.76,-199.52l0 0c2.03,61.85 4.31,128.04 6.76,199.52z" class="fil7"/><path d="M3415.48 5173.95c-1.35,-32.85 -2.62,-64.76 -3.72,-95.28l0 0c1.1,30.53 2.37,62.41 3.72,95.28z" class="fil7"/></g></svg>