<svg xmlns="http://www.w3.org/2000/svg" xmlns:xlink="http://www.w3.org/1999/xlink" xmlns:xodm="http://www.corel.com/coreldraw/odm/2003" width="639.999" height="639.999" version="1.1" viewBox="0 0 6666.66 6666.66" xml:space="preserve" style="shape-rendering:geometricPrecision;text-rendering:geometricPrecision;image-rendering:optimizeQuality;fill-rule:evenodd;clip-rule:evenodd"><defs><style type="text/css">.fil1{fill:#2e6a7c}.fil1,.fil4,.fil8{fill-rule:nonzero}.fil4{fill:#355b5a}.fil8{fill:#3c6f6c}.fil0,.fil2,.fil7{fill-rule:nonzero}.fil2,.fil7{fill:#467c79}.fil7{fill:#4c4237}.fil0{fill:#95b9ba}.fil3,.fil5,.fil6{fill-rule:nonzero}.fil6{fill:#e2b686}.fil3{fill:#f4d3b0}.fil5{fill:#f9ebdc}</style></defs><g id="Layer_x0020_1"><metadata id="CorelCorpID_0Corel-Layer"/><g id="_2247224512240"><path d="M5972.79 2137.96c0,0 46.94,322.22 -163.1,509.44 -210.28,187.22 -1403.68,1348.71 -1403.68,1348.71 0,0 -2078.15,1904.37 -2607.05,2200.4 -528.9,296 -781.14,219.69 -818.83,157.96 -22.99,-37.67 -87.48,-132.57 -137.74,-216.11 -32.01,-52.98 -58.32,-101.41 -64.72,-127.63 -10.19,-41.11 1.42,-68.21 7.82,-84.54 4.03,-10.62 2.61,-17.94 2.61,-17.94 0,0 -94.83,-197.91 -54.29,-397.76 0.48,-3.6 1.43,-7.13 2.13,-10.67 35.56,-157.11 487.41,-717.77 737.05,-1057.35 73.72,-100.35 129.67,-181.31 152.19,-226.95 19.92,-40.49 47.65,-124.6 80.37,-236.93 48.13,-165.8 107.63,-393.09 169.26,-632.22 103.83,-401.29 214.79,-835.85 292.31,-1069.65 79.18,-238.59 63.77,-489.74 29.63,-678.54 -32.95,-181.24 -67.33,-305.93 -67.33,-305.93 -10.91,-97.32 38.17,-204.35 145.32,-304.04 213.84,-198.94 596,-364.97 880.95,-348.58 427.91,24.58 879.05,-231.24 879.05,-231.24 0,0 471.29,288.19 669.24,371.7 197.96,83.52 743.21,819.17 743.21,819.17l287.09 294.34 238.49 244.37z" class="fil0"/><path d="M2120.9 1313.38c-54.29,-296.35 108.57,-589.85 389.03,-700.22 165.24,-65.06 731.59,-16.29 840.65,92.76 230.43,230.45 -1064.2,2027.74 -1064.2,2027.74l-246.55 -18.49c0,0 115.69,-305.49 168.08,-606.37 28.21,-161.82 -33.67,-504.36 -87,-795.42z" class="fil0"/><path d="M5447.21 1599.24l287.09 294.34 -747.95 666.9c0,0 -789.2,-135.15 -620.88,-471.29 168.31,-336.12 -59.03,-291.24 -462.52,-364.78 -403.49,-73.54 -1390.17,266.58 -1574.14,688.96 -40.3,92.1 0.95,-638.5 -15.17,-1099.05 -8.77,-250.94 137.26,-483.17 369.12,-578.85 159.55,-65.76 328.57,-104.14 472.95,-95.87 267.42,15.36 581.53,-191.93 779.24,-349.54 107.63,-85.68 265.04,-65.88 346.12,45.11 126.83,173.35 305.82,395.5 422.93,444.88 197.96,83.52 743.21,819.17 743.21,819.17z" class="fil1"/><path d="M3988.53 1970.82c-61.17,0 -110.48,-49.55 -110.48,-110.64 0,-61.11 49.31,-110.67 110.48,-110.67 61.16,0 110.71,49.55 110.71,110.67 0,61.09 -49.55,110.64 -110.71,110.64zm-503.3 86.87c-60.93,0 -110.48,-49.53 -110.48,-110.67 0,-61.09 49.55,-110.61 110.48,-110.61 61.16,0 110.71,49.52 110.71,110.61 0,61.14 -49.55,110.67 -110.71,110.67zm-500.22 107.65c-60.93,0 -110.71,-49.54 -110.71,-110.66 0,-61.09 49.78,-110.62 110.71,-110.62 61.17,0 110.71,49.52 110.71,110.62 0,61.12 -49.55,110.66 -110.71,110.66zm2352.91 -1071.62c-21.1,-86.46 -124.22,-122.4 -194.63,-67.73l-478.17 371.91 -1675.6 379.74c-43.86,-101.75 -112.37,-187.33 -194.63,-244.47 -81.31,-56.42 -358.44,0.29 -598.12,65 34.14,188.81 49.54,439.96 -29.63,678.54 -153.39,462.76 -443.8,1739.58 -541.94,1938.79 -100.99,204.8 -851.79,1087.72 -891.38,1294.96 -40.54,199.85 54.29,397.76 54.29,397.76 0,0 3.32,7.42 -0.95,18.04 -6.16,16.33 0.72,33.31 10.91,74.44 6.64,26.2 36.04,71.14 68.04,124.13l721.64 -201.58 2074.11 -1719.41c0,0 -133.71,-237.54 -321.23,-323.91 -187.52,-86.36 -723.3,-86.2 -1007.78,-102.53 -56.42,-3.24 -112.84,-30.46 -167.13,-71.81 160.73,-192.11 243.71,-593.64 378.37,-785.74 55.24,-78.73 137.74,-189.06 220,-307.81 216.69,-130.04 566.35,-299.68 1022,-385.95 799.87,-151.32 798.69,692.26 798.69,692.26l923.85 -1128.04 -61.4 -191.08 -109.29 -505.52z" class="fil2"/><path d="M2096.95 4496.87c-156.94,297.85 -457.3,502.84 -915.09,815.54 -252,172.15 -382.15,204.07 -448.06,198.09 0.48,-3.63 1.43,-7.16 2.13,-10.69 45.99,-203.47 790.63,-1083.87 889.24,-1284.3 19.92,-40.49 47.65,-124.6 80.37,-236.93 97.91,43.55 530.56,253.61 391.4,518.28z" class="fil0"/><path d="M1832.15 3602.47c0,0 -64.96,-27.48 -77.76,-4.89 -92.46,166.07 89.37,296.41 197.24,338.11 36.51,14.13 73.02,28.3 88.19,34.37 34.85,14.01 37.93,-57.21 17.31,-132.52 -20.39,-75.34 -224.98,-235.08 -224.98,-235.08z" class="fil3"/><path d="M1697.26 3913.6c-20.15,-5.9 -35.56,31.65 -43.15,45.47 -56.18,100.87 -14.93,141.38 -14.93,141.38 115.21,109.13 58.55,96.46 288.28,188.64 35.08,14.01 38.16,-57.2 17.3,-132.52 -16.83,-62.34 -200.79,-229.27 -247.5,-242.97z" class="fil3"/><path d="M1899.48 3251.92c0,0 -32,3.63 -44.57,26.24 -76.57,137.67 35.08,226.71 33.66,224.69 80.13,90.04 156.94,109.74 251.53,147.79 35.09,14.04 38.17,-57.2 17.54,-132.55 -20.39,-75.31 -258.17,-266.18 -258.17,-266.18z" class="fil3"/><path d="M1981.74 2935.01c0,0 -24.41,11.17 -36.98,33.76 -76.57,137.67 34.85,226.71 33.43,224.69 80.37,90.04 156.94,109.77 252,147.79 34.85,14.01 37.7,-57.2 17.31,-132.52 -20.62,-75.34 -265.76,-273.72 -265.76,-273.72z" class="fil3"/><path d="M2062.58 2650.43c0,0 -24.18,11.19 -36.98,33.76 -56.19,100.87 -2.85,183.85 -2.85,183.85l36.51 40.87c44.57,50.24 100.76,89.11 163.58,113.41 36.5,14.13 73.01,28.31 88.19,34.37 34.85,13.99 37.94,-57.2 17.31,-132.54 -20.63,-75.34 -265.75,-273.72 -265.75,-273.72z" class="fil3"/><path d="M2140.33 2356.46c0,0 -24.18,11.14 -36.74,33.76 -56.43,100.88 -2.84,183.85 -2.84,183.85l36.27 40.84c44.81,50.26 100.99,89.14 163.57,113.42 36.51,14.11 73.02,28.3 88.19,34.37 35.09,14.01 38.17,-57.18 17.31,-132.55 -20.39,-75.31 -265.76,-273.69 -265.76,-273.69z" class="fil3"/><path d="M2218.33 2073.95c0,0 -24.41,11.16 -36.98,33.76 -55.94,100.9 -2.84,183.84 -2.84,183.84l36.51 40.85c44.81,50.26 100.76,89.16 163.58,113.44 36.51,14.1 73.02,28.28 87.95,34.37 35.08,14.01 38.17,-57.23 17.78,-132.55 -20.85,-75.32 -265.99,-273.72 -265.99,-273.72z" class="fil3"/><path d="M2183.01 1652.32c0,0 -25.84,9.42 -36.74,33.9 -48.6,109.34 23.94,214 23.94,214l47.18 53.06c58.32,65.24 127.55,118.91 202.22,156.56 43.39,21.86 87,43.83 104.78,53.15 41.72,21.52 34.61,-61.09 0.24,-152.01 -34.37,-90.91 -341.62,-358.67 -341.62,-358.67z" class="fil3"/><path d="M4658.95 1384.55c-518.94,110.86 -1154.52,256.41 -1669.44,393.09 705.99,-133.16 1429.76,-308.24 1682,-366.56 1.9,-1.63 292.54,-233.34 471.76,-385.09 -82.26,58.65 -279.98,203.78 -484.33,358.56z" class="fil4"/><path d="M3853.39 2202.72c-620.88,89.02 -1091.94,392.61 -1101.18,396.33 -80.37,111.28 -230.43,318.1 -251.53,356.31 -164.52,331.92 -206.72,566.19 -346.83,740.22l-10.19 12.73c140.1,98.31 137.5,83.42 419.85,92.31 696.5,22.69 869.57,31.58 1098.34,403.18 -154.09,-268.36 -317.2,-349.37 -475.09,-375.16 -265.52,-52.6 -808.87,-55.66 -879.28,-69.81 -42.91,-8.28 -84.16,-30.94 -119.72,-56.47 140.34,-182 212.41,-477.72 324.78,-695.77 43.85,-74.32 11.38,-29.19 263.38,-381.49 422.93,-253.88 1265.71,-599.07 1609.46,-240.01 128.73,137.26 192.98,353.52 199.38,533.26 -5.22,-445.47 -258.17,-773.79 -731.36,-715.64z" class="fil4"/><path d="M5972.79 2137.96c0,0 46.94,322.22 -163.1,509.44 -210.28,187.22 -1403.68,1348.71 -1403.68,1348.71 0,0 -2078.15,1904.37 -2607.05,2200.4 -528.9,296 -781.14,219.69 -818.83,157.96 -32.72,-53.48 -148.64,-222.39 -189.42,-310.02 -6.4,-13.35 -10.91,-24.8 -13.04,-33.73 -10.19,-41.11 -10.91,-64.48 10.43,-102.48 113.8,6.07 438.81,-38.36 1224.22,-655.83 1029.12,-808.99 1768.3,-1875.14 2250.02,-2365.19 481.72,-490 891.14,-842.09 1184.87,-1287.97l80.84 82.85 444.74 455.86z" class="fil5"/><path d="M5972.79 2137.96c0,0 46.94,322.22 -163.1,509.44 -210.28,187.22 -1403.68,1348.71 -1403.68,1348.71 0,0 -2078.15,1904.37 -2607.05,2200.4 -528.9,296 -781.14,219.69 -818.83,157.96 -16.35,-26.65 -53.34,-81.95 -91.28,-141.65 -38.4,-60 -77.75,-124.46 -98.14,-168.37 84.16,-5.19 224.98,-42.74 459.2,-160.11 532.93,-267.13 1635.54,-1163.18 2070.32,-1732.76 434.78,-569.63 1299.37,-1504.98 1671.33,-1836.34 281.87,-251.46 462.05,-474.35 536.48,-633.14l382.39 391.85 62.35 64z" class="fil6"/><path d="M5972.79 2137.96c0,0 46.94,322.22 -163.1,509.44 -210.28,187.22 -1403.68,1348.71 -1403.68,1348.71 0,0 -2078.15,1904.37 -2607.05,2200.4 -528.9,296 -781.14,219.69 -818.83,157.96 -16.35,-26.65 -53.34,-81.95 -91.28,-141.65 120.2,10.34 310.33,2.37 544.79,-90.53 413.21,-163.56 1633.88,-1134.52 1932.59,-1433.44 298.94,-298.94 1310.04,-1213.22 1364.33,-1261.63 54.29,-48.22 1074.63,-880.33 1179.89,-1353.26l62.35 64z" class="fil7"/><path d="M2724.7 3939.88l-6.5 0c-143.18,0.4 -288.87,38.7 -288.87,38.7 0,0 -27.03,348.94 -285.67,766.28 -194.63,314.04 -611.4,646.79 -560.91,646.79 16.59,0 83.92,-36.01 225.93,-120.55 575.13,-341.5 1271.4,-1136.11 1141.72,-1265.74 -49.24,-49.35 -136.39,-65.02 -225.7,-65.49z" class="fil8"/><path d="M4584.75 2440.34c0,0 -151.48,-458.3 -133.47,-575.15 17.78,-116.8 692,-674.15 692,-674.15 7.83,-1.92 15.17,-2.82 22.05,-2.82 126.36,0 163.1,292.9 103.59,493.89 -62.82,212.32 -684.18,758.24 -684.18,758.24z" class="fil8"/></g></g></svg>