<svg xmlns="http://www.w3.org/2000/svg" xmlns:xlink="http://www.w3.org/1999/xlink" xmlns:xodm="http://www.corel.com/coreldraw/odm/2003" width="639.999" height="639.999" version="1.1" viewBox="0 0 6666.66 6666.66" xml:space="preserve" style="shape-rendering:geometricPrecision;text-rendering:geometricPrecision;image-rendering:optimizeQuality;fill-rule:evenodd;clip-rule:evenodd"><defs><style type="text/css">.fil13,.fil9{fill-rule:nonzero}.fil9{fill:#b8863b}.fil13{fill:#b9883c}.fil1,.fil10,.fil12{fill-rule:nonzero}.fil10,.fil12{fill:#c59242}.fil12{fill:#c6b19d}.fil1{fill:#c9711d}.fil3,.fil5,.fil7{fill-rule:nonzero}.fil7{fill:#cc751e}.fil3{fill:#d2a24c}.fil5{fill:#e08422}.fil0,.fil2,.fil8{fill-rule:nonzero}.fil8{fill:#e0b055}.fil2{fill:#e0d3c6}.fil0{fill:#efc462}.fil11{fill-rule:nonzero}.fil4{fill:#ff9f2c}.fil4,.fil6{fill-rule:nonzero}.fil11{fill:#ffc257}.fil6{fill:#ffd56e}</style></defs><g id="Layer_x0020_1"><metadata id="CorelCorpID_0Corel-Layer"/><g id="_2529379190432"><path d="M6342.42 4850.29c-68.01,-139.57 -148.92,-262.93 -464.24,-460.49 -687.5,-430.83 -1118.24,-463.54 -1783.51,-916.92 -71.45,-48.58 -128.37,-90.44 -163.96,-117.11 -19.69,-69.83 -44.91,-174.84 -58.55,-304.54 -14.13,-134.11 -5.35,-194.79 -7.05,-304.37 -3.58,-229.96 -47.38,-288.02 -94.89,-603.52 -15.15,-100.59 -34.57,-253.19 -44.28,-444.22 -777.72,106.8 -1329.95,170.43 -1440.56,178.6 -39.12,2.78 -82.64,7.69 -108.16,37.45 -25.58,29.93 -23.6,73.76 -20.18,113.02 45.38,521.09 91.34,1045.44 229.06,1550.18 60.94,223.42 139.78,442.58 179.69,670.58 25.87,148 35.51,300.19 86.18,441.58 62.56,174.63 188.24,325.88 348.47,419.32 137.91,80.45 296.12,117.48 451.66,153.46 229.32,53.06 458.64,106.13 687.96,159.19 253.89,58.73 507.77,117.48 762.57,172.09 184.59,39.57 371.42,77.12 560.17,74.34 261.23,-3.85 513.4,-99.37 746.91,-208.65 224.3,-104.95 232.09,-406.11 132.71,-610z" class="fil0"/><path d="M6342.42 4850.29c-68.01,-139.57 -148.92,-262.93 -464.24,-460.49 -81.78,-51.22 -159.8,-96.69 -235.15,-138.07 188.76,416.74 56.02,1072.68 -274.46,1415.06 31.37,1.6 62.76,2.61 94.22,2.14 261.23,-3.85 513.4,-99.37 746.91,-208.65 224.3,-104.95 232.09,-406.11 132.71,-610z" class="fil1"/><path d="M3877.01 5361.63c-129.85,-30.03 -259.67,-60.07 -389.5,-90.11l0 0c129.83,30.04 259.67,60.09 389.5,90.11zm-133.76 -3433.36c-1.22,-12.27 -2.45,-24.86 -3.65,-37.78 0.03,0 0.07,0 0.08,0 1.19,12.76 2.42,25.35 3.66,37.78 -0.04,0 -0.06,0 -0.1,0z" class="fil2"/><path d="M4897.54 5593.5l-3.6 -0.77 -3.59 -0.78c-250.69,-53.85 -500.5,-111.66 -750.3,-169.45 -87.69,-20.28 -175.38,-40.58 -263.04,-60.88 -129.83,-30.03 -259.67,-60.07 -389.5,-90.11 80.37,-50.85 162.69,-97.09 252.83,-126.2 -0.02,-0.1 -0.03,-0.18 -0.03,-0.26 3.65,-1.18 7.31,-2.32 10.99,-3.45 94.96,-28.96 194.76,-37.18 293.2,-50.24 1.39,-0.18 2.78,-0.36 4.19,-0.56 355.85,-47.73 699.49,-159.88 1040.76,-271.52l0 0c215.21,-70.37 434.65,-143.15 634.43,-247.44 24.29,257.7 -29.96,545.32 -145.55,786.14 -56.13,116.9 -126.69,222.75 -209.76,308.81 26.15,1.34 52.33,2.26 78.57,2.26 5.22,0 10.43,-0.03 15.65,-0.11 -6.62,0.1 -13.21,0.15 -19.83,0.15 -182.01,0 -362.23,-36.31 -540.34,-74.5 -1.7,-0.36 -3.39,-0.7 -5.09,-1.08zm-229.94 -50.95c76.61,17.09 153.2,34.46 229.94,50.95zm-1286.64 -2194.55c-65.6,-6.7 -136.11,-16.69 -210.78,-30.75 -4.61,-23.23 -13.34,-56.76 -31.39,-93.72 -1.93,-3.93 -3.97,-7.85 -6.13,-11.94 0,0 0,0 -0.02,0 -0.18,-0.33 -0.37,-0.65 -0.56,-0.98 0,0 -0.02,0 -0.02,0 -0.2,-0.33 -0.38,-0.82 -0.56,-1.15 -0.01,0 -0.01,0 -0.05,0 -0.17,-0.33 -0.34,-0.65 -0.52,-0.98 -0.03,0 -0.05,-0.16 -0.07,-0.16 -0.18,-0.33 -0.34,-0.65 -0.52,-0.98 -0.03,0 -0.05,0 -0.06,0 -0.18,-0.33 -0.34,-0.66 -0.52,-0.98 -0.02,0 -0.05,-0.16 -0.08,-0.16 -0.16,-0.33 -0.34,-0.65 -0.5,-0.82 -0.04,-0.17 -0.07,-0.17 -0.1,-0.33 -0.17,-0.17 -0.33,-0.49 -0.51,-0.82 -0.04,0 -0.07,-0.16 -0.1,-0.16 -0.17,-0.33 -0.33,-0.66 -0.48,-0.82 -0.05,-0.17 -0.09,-0.17 -0.15,-0.33 -0.17,-0.17 -0.31,-0.49 -0.47,-0.81 -0.05,0 -0.1,-0.17 -0.15,-0.17 -0.15,-0.33 -0.31,-0.66 -0.46,-0.82 -0.07,-0.17 -0.11,-0.17 -0.17,-0.33 -0.16,-0.33 -0.34,-0.66 -0.52,-0.82 -0.02,-0.17 -0.07,-0.17 -0.1,-0.33 -0.21,-0.33 -0.43,-0.65 -0.64,-0.98l0 0c-0.18,-0.33 -0.36,-0.66 -0.56,-0.98 -0.05,0 -0.08,-0.17 -0.13,-0.17 -0.15,-0.33 -0.31,-0.49 -0.44,-0.82 -0.05,0 -0.09,-0.17 -0.15,-0.17 -25.52,-42.69 -56.49,-74.41 -83.67,-96.98 -0.02,0 -0.02,0 -0.02,0 -0.08,-0.17 -0.18,-0.17 -0.28,-0.33 -27.97,-23.23 -51.93,-37.13 -61.63,-43.02 -156.88,-96.83 -291.72,-364.24 -550.46,-855.07 -24.2,-45.8 -54.5,-103.2 -90.39,-170.92 11.92,0.17 23.83,0.17 35.77,0.17 363.14,0 726.31,-56.1 1072.02,-167.48 21.52,-6.87 43.36,-14.39 64.24,-23.39 1.19,12.93 2.42,25.52 3.65,37.78 -135.52,89.14 -350.2,202.15 -631.04,241.24 -72.69,10.14 -141.05,14.23 -203.97,14.23 -15.26,0 -30.21,-0.33 -44.81,-0.66 31.37,73.6 67.58,151.13 109.42,231.27 26.78,51.19 53.92,99.77 81.07,145.89 28.72,45.8 57.46,91.76 86.18,137.55 42.08,67.22 84.15,134.28 126.23,201.5 56.25,36.63 146.27,105.17 223.83,218.83 75.31,110.4 106.65,215.89 120.74,280.83 0.02,0 0.02,0 0.02,0z" class="fil3"/><path d="M3675.36 1913.87c54.72,-17.67 111.59,-38.27 149.57,-81.45 91.26,-103.85 27.02,-262.17 -4.02,-396.78 -39.43,-171.24 -15.56,-349.52 -15.21,-525.18 0.13,-74.91 -5.25,-153.9 -45.55,-217.2 -81.02,-127.08 -263.09,-137.55 -410.81,-107.3 -175.33,35.82 -341.59,108.28 -516.95,143.93 -190.13,38.6 -387.15,33.2 -577.15,72.45 -189.99,39.26 -383.87,136.41 -466.26,312.07 -35.57,75.72 -47.61,160.61 -50.32,244.19 -5.94,184.33 26.64,416.41 131.31,573.59 100.13,150.31 343.26,131.66 513.66,142.29 435.57,27.31 876.28,-26.82 1291.74,-160.61z" class="fil4"/><path d="M2596.61 2081.02c-9.72,0 -19.45,0 -29.17,0 -28.09,-52.99 -59.65,-112.36 -94.42,-177.62 27.98,-42.04 53.71,-94.87 61.66,-159.3 10.84,-87.99 -21.79,-152.76 -39.83,-216.06 -28.98,-101.73 -57.96,-203.3 -86.95,-305.03 132.74,-12.1 265.35,-22.41 398.33,-31.89 -0.61,106.8 3.66,222.76 15.41,346.57 18.87,198.88 53.12,376.34 92.11,529.26 -105.46,9.32 -211.3,14.07 -317.15,14.07z" class="fil5"/><path d="M3141.31 2039.15c-28.77,-215.24 -59.4,-432.44 -91.98,-651.44 -12.9,-86.68 -26,-173.04 -39.3,-259.07 25.3,-2.45 50.62,-5.07 75.92,-7.52 19.27,146.06 43,298.65 72.06,456.97 28.37,154.4 59.6,301.76 92.62,442.09 -36.36,6.71 -72.76,13.41 -109.32,18.97z" class="fil5"/><path d="M3492.94 1966.21c-32.52,-177.46 -62.61,-361.13 -89.48,-551.02 -16.35,-115.47 -30.94,-229.14 -43.91,-340.85 24.99,1.96 50,3.43 75.12,4.25 56.03,288.19 48.41,584.87 132.78,867.33 -24.78,6.87 -49.57,13.74 -74.5,20.28z" class="fil5"/><path d="M1229.06 3481.87c104.79,228 153.2,401.37 316.25,726.19 111.69,222.61 218.12,398.54 292.8,515.38 16.96,116.78 75.94,399.31 315.17,602.8 275.77,234.57 694.47,284.56 987.17,153.78 213.13,-95.24 387.56,-270.31 610.83,-338.41 94.98,-28.96 194.78,-37.18 293.22,-50.24 357.33,-47.4 702.34,-160.01 1044.95,-272.07 341.26,-111.6 693.21,-229.26 960.48,-468.93 145.96,-131.01 261.62,-295.55 335.47,-477.26 63.64,-156.52 95.32,-336.76 30.94,-493.12 -58.65,-142.3 -191.18,-245.33 -336.57,-296.04 -145.37,-50.7 -303.08,-54.46 -456.58,-42.53 -151.52,11.94 -301.89,38.6 -448.13,79.98 -44.89,12.59 -89.35,26.83 -133.61,41.54 -189.28,62.97 -322.97,107.13 -358.4,119.4 -190.81,65.26 -475.65,123.81 -771.9,129.37 -127.82,2.29 -303.3,-4.42 -511.05,-43.5 -5.63,-28.3 -17.42,-72.13 -44.83,-118.58 -51.81,-87.83 -127.56,-130.52 -146.87,-142.46 -156.88,-96.83 -291.72,-364.24 -550.46,-855.07 -70.3,-133.3 -191.75,-362.77 -353.61,-663.71 -145.06,94.86 -371.56,239.94 -655.17,409.38 -114.08,68.2 -180.11,121.52 -722.09,491.16 -35.38,24.04 -201.83,137.55 -236.78,161.43 277.39,323.67 440.11,617.09 538.75,831.51z" class="fil6"/><path d="M3706.69 4989.08c-19.57,-66.78 -41.39,-114.19 -50.98,-138.48 -47.14,-119.48 -95.48,-239.56 -150.18,-355.69 -67.24,-142.77 -144.09,-284.24 -235.95,-413.29 -413.71,54.95 -828.85,211.64 -1173.21,442.37 -88.06,59 -166.89,156 -251.65,239.53 24.06,132.72 93.2,379.55 308.55,562.71 275.77,234.57 694.47,284.56 987.17,153.76 209.59,-93.65 381.89,-264.27 599.89,-334.69 -5.3,-37.93 -14.93,-92.43 -33.65,-156.23z" class="fil4"/><path d="M6416.35 3379.98c-58.65,-142.3 -191.18,-245.33 -336.57,-296.04 -145.37,-50.7 -303.08,-54.46 -456.58,-42.53 -103.82,8.18 -207,23.72 -308.79,45.8 152.04,93.56 294.63,262.67 365.37,360.96 241.77,335.45 281.02,759.06 91.25,1098.11 99.52,-55.45 193.57,-119.46 278.91,-195.94 145.96,-131.01 261.64,-295.55 335.47,-477.26 63.64,-156.52 95.32,-336.76 30.94,-493.12z" class="fil4"/><path d="M2433.87 1090.2c-21.05,0 -42.61,-0.49 -64.34,-1.8 -3.79,-13.25 -7.6,-26.66 -11.4,-39.91 -17.32,-60.68 -37.08,-124.46 -64.33,-182.53 4.68,-0.33 9.35,-0.49 14.02,-0.82 282.43,-15.21 570.92,-20.12 837.45,-114.65 110.89,-39.42 218.36,-94.37 335.39,-106.8 10.56,-1.15 26.82,-3.93 45.99,-3.93 22.21,0 48.33,3.76 73.91,17.5 5.94,3.27 66.41,37.29 70.46,92.57 4.52,61.17 -63.07,107.45 -95.24,129.53 -80.27,55.12 -154.69,61.33 -258.76,75.89 -114.34,16.03 -226.82,43.51 -340.75,62.32 -324.07,53.48 -274.1,51.85 -356.29,61.17 -44.75,5.07 -112.15,11.45 -186.11,11.45z" class="fil7"/><path d="M3141.69 5479.45c0.17,-0.08 0.34,-0.16 0.51,-0.24 -0.17,0.1 -0.34,0.16 -0.51,0.24zm1.24 -0.56c0.1,-0.05 0.18,-0.1 0.26,-0.13 -0.06,0.03 -0.18,0.08 -0.26,0.13zm1.26 -0.59c0.03,0 0.05,-0.02 0.1,-0.04 -0.04,0.02 -0.08,0.04 -0.1,0.04z" class="fil8"/><path d="M2151.95 5325.11c-0.16,-0.13 -0.31,-0.28 -0.49,-0.41 0.17,0.13 0.33,0.28 0.49,0.41z" class="fil8"/><path d="M2150.63 5323.98c-0.2,-0.17 -0.37,-0.35 -0.56,-0.49 0.18,0.17 0.36,0.33 0.56,0.49z" class="fil8"/><path d="M2149.29 5322.81c-0.19,-0.16 -0.35,-0.31 -0.57,-0.49 0.2,0.16 0.39,0.33 0.57,0.49z" class="fil8"/><path d="M2147.98 5321.69c-0.22,-0.18 -0.4,-0.34 -0.61,-0.52 0.23,0.18 0.39,0.35 0.61,0.52z" class="fil8"/><path d="M2146.64 5320.54c-0.18,-0.18 -0.37,-0.34 -0.59,-0.52 0.21,0.18 0.39,0.35 0.59,0.52z" class="fil8"/><path d="M2145.3 5319.37c-0.16,-0.15 -0.36,-0.33 -0.52,-0.47 0.17,0.15 0.34,0.31 0.52,0.47z" class="fil8"/><path d="M2143.94 5318.17c-0.16,-0.15 -0.34,-0.3 -0.49,-0.44 0.17,0.15 0.33,0.29 0.49,0.44z" class="fil8"/><path d="M2142.5 5316.91c-0.11,-0.11 -0.23,-0.21 -0.35,-0.31 0.13,0.1 0.24,0.2 0.35,0.31z" class="fil8"/><path d="M2139.49 5314.25c-0.07,-0.07 -0.09,-0.1 -0.18,-0.17 0.06,0.05 0.15,0.12 0.18,0.17z" class="fil8"/><path d="M2138.2 5313.09c-0.1,-0.08 -0.21,-0.18 -0.31,-0.26 0.11,0.08 0.2,0.16 0.31,0.26z" class="fil8"/><path d="M2136.88 5311.91c-0.12,-0.09 -0.22,-0.18 -0.31,-0.28 0.08,0.08 0.21,0.18 0.31,0.28z" class="fil8"/><path d="M2135.54 5310.71c-0.08,-0.09 -0.18,-0.16 -0.28,-0.26 0.1,0.08 0.2,0.18 0.28,0.26z" class="fil8"/><path d="M2134.16 5309.47c-0.07,-0.07 -0.11,-0.11 -0.17,-0.17 0.05,0.07 0.1,0.1 0.17,0.17z" class="fil8"/><path d="M2132.74 5308.18c0,-0.02 -0.02,-0.04 -0.03,-0.04 0.02,0 0.03,0.02 0.03,0.04z" class="fil8"/><path d="M3740.31 5145.05l0 0c3.65,-1.18 7.31,-2.32 10.97,-3.45 94.98,-28.96 194.78,-37.18 293.22,-50.24 1.39,-0.18 2.78,-0.36 4.19,-0.56 -1.41,0.19 -2.8,0.37 -4.19,0.56 -98.44,13.07 -198.24,21.28 -293.2,50.24 -3.69,1.13 -7.35,2.27 -10.99,3.45z" class="fil9"/><path d="M3740.31 5145.05c-5.32,-37.93 -14.95,-92.31 -33.61,-155.97 -9.89,-33.74 -20.36,-62.54 -29.54,-85.93 392.01,-35.02 920.06,-107.62 1459.43,-265.4 305.77,-89.45 508.2,-174.99 693.89,-276.11 7.72,-4.09 15.37,-8.34 22.94,-12.59 -19.64,67.97 -47.04,134.07 -82.4,197.25 97.18,-54.14 189.13,-116.45 272.87,-190.7 -4.27,3.76 -8.59,7.6 -12.91,11.33 -264.81,228.61 -608.29,343.38 -941.54,452.36l0 0c-341.27,111.63 -684.92,223.79 -1040.76,271.52 -1.41,0.19 -2.8,0.37 -4.19,0.56 -98.44,13.07 -198.24,21.28 -293.22,50.24 -3.67,1.13 -7.33,2.27 -10.97,3.45z" class="fil8"/><path d="M1903.46 4970.62c-0.08,-0.21 -0.18,-0.43 -0.26,-0.64 0.08,0.21 0.16,0.41 0.26,0.64z" class="fil8"/><path d="M1903.12 4969.8c-40.1,-101.59 -57.11,-191.97 -65.01,-246.37l0 0c-73.8,-115.48 -178.62,-288.64 -288.87,-507.53 -1.31,-2.62 -2.61,-5.24 -3.93,-7.85 -163.05,-324.82 -211.46,-498.19 -316.25,-726.19 -83.44,-181.39 -212.72,-419.35 -418.44,-684.15 17.96,2.78 36.9,4.26 57.11,4.26 164.21,0 413.96,-98.13 926.24,-365.22l0 0c0.28,-0.17 37.75,-19.79 95.94,-53.97 38.4,-22.57 77.65,-46.61 117.58,-72.45 116.55,-75.4 259.2,-178.44 369.76,-292.11 -151.93,207.39 -486.04,444.38 -486.04,444.38 -345.74,245.17 -529.31,317.3 -607.56,342.48 -11.42,3.76 -22.95,7.03 -22.95,7.03 -43.03,12.92 -80.84,22.08 -111.39,28.46 117.87,230.94 235.78,461.88 353.65,692.98 9.88,42.2 19.84,84.4 29.85,126.76 12.4,52.34 24.83,104.68 37.31,156.69 112.7,20.12 252.28,36.47 412.5,36.47 44.96,0 91.56,-1.3 139.63,-4.09 244.73,-14.56 447.94,-65.26 596.89,-114.49 -117.63,76.06 -285.11,166.66 -499.29,231.59 -175.19,53.15 -332.19,74.25 -455.74,81.78 87.6,176.96 175.22,353.78 262.81,530.65 -61.5,55.33 -120.28,123.57 -182.22,184.6 9.76,53.91 26.99,126.64 58.39,206.28z" class="fil8"/><path d="M6043.95 4355.59c0.59,-0.49 1.18,-0.98 1.75,-1.47 -0.59,0.49 -1.16,0.98 -1.75,1.47z" class="fil8"/><path d="M6046.2 4353.62c0.46,-0.49 0.92,-0.82 1.41,-1.31 -0.48,0.49 -0.95,0.81 -1.41,1.31z" class="fil8"/><path d="M6048.1 4351.99c0.6,-0.66 1.22,-1.15 1.83,-1.63 -0.62,0.49 -1.23,0.98 -1.83,1.63z" class="fil8"/><path d="M6052.04 4348.39c0.11,-0.17 0.23,-0.17 0.37,-0.33 -0.15,0.17 -0.26,0.17 -0.37,0.33zm2.39 -2.13c0.02,0 0,0 0.02,0l-0.02 0z" class="fil2"/><path d="M2787.5 5550.8c-222.96,-0.01 -457.84,-74.53 -634.22,-224.56l0 0c-0.43,-0.38 -0.88,-0.77 -1.33,-1.13l0 0c-0.16,-0.13 -0.32,-0.28 -0.49,-0.41l0 0c-0.28,-0.25 -0.54,-0.48 -0.83,-0.72l0 0c-0.2,-0.17 -0.37,-0.33 -0.56,-0.49l0 0c-0.26,-0.21 -0.52,-0.44 -0.79,-0.67l0 0c-0.18,-0.16 -0.37,-0.33 -0.57,-0.49l0 0c-0.24,-0.21 -0.51,-0.43 -0.73,-0.64l0 0c-0.22,-0.18 -0.38,-0.34 -0.61,-0.52l0 0c-0.23,-0.2 -0.49,-0.43 -0.74,-0.62l0 0c-0.2,-0.18 -0.37,-0.34 -0.59,-0.52l0 0c-0.24,-0.21 -0.49,-0.44 -0.75,-0.65l0 0c-0.18,-0.16 -0.36,-0.33 -0.52,-0.47l0 0c-0.3,-0.26 -0.56,-0.48 -0.83,-0.72l0 0c-0.16,-0.15 -0.33,-0.3 -0.49,-0.44l0 0c-0.31,-0.26 -0.63,-0.54 -0.95,-0.82l0 0c-0.11,-0.11 -0.23,-0.21 -0.35,-0.31l0 0c-0.87,-0.78 -1.77,-1.57 -2.65,-2.35l0 0c-0.03,-0.05 -0.11,-0.11 -0.18,-0.17l0 0c-0.36,-0.31 -0.76,-0.67 -1.11,-1l0 0c-0.11,-0.1 -0.2,-0.18 -0.31,-0.26l0 0c-0.34,-0.31 -0.69,-0.61 -1.01,-0.92l0 0c-0.1,-0.09 -0.23,-0.19 -0.31,-0.28l0 0c-0.34,-0.31 -0.69,-0.62 -1.03,-0.92l0 0c-0.08,-0.08 -0.18,-0.18 -0.28,-0.26l0 0c-0.36,-0.33 -0.72,-0.65 -1.09,-0.98l0 0c-0.07,-0.07 -0.11,-0.1 -0.17,-0.17l0 0c-0.41,-0.37 -0.85,-0.75 -1.26,-1.13l0 0c0,-0.02 -0.02,-0.04 -0.03,-0.04l0 0c-115.22,-104.7 -185.75,-227.64 -229.24,-337.53l0 0c-0.1,-0.23 -0.18,-0.43 -0.26,-0.64l0 0c-0.03,-0.07 -0.05,-0.13 -0.08,-0.18l0 0c-31.4,-79.64 -48.63,-152.37 -58.39,-206.28 61.94,-61.04 120.72,-129.28 182.22,-184.6 0.26,0.54 0.56,1.09 0.82,1.63 28.62,89.94 91.97,245.79 233.79,387.97 44.04,44.18 268.85,269.54 563.85,269.54 10.89,0 21.95,-0.31 33.04,-0.93 78.33,-4.51 192.73,-53.81 418.37,-152.24 166.37,-72.57 301.35,-136.67 392.4,-181.04 2.63,-0.21 5.28,-0.46 7.93,-0.7 9.17,23.39 19.64,52.19 29.54,85.93 18.67,63.66 28.3,118.04 33.61,155.97l0 0c-216.71,69.97 -388.12,239.22 -596.01,333.22 -0.05,0.02 -0.07,0.04 -0.1,0.04 -0.34,0.16 -0.66,0.31 -1,0.46 -0.08,0.03 -0.17,0.08 -0.26,0.13 -0.24,0.1 -0.49,0.21 -0.73,0.31 -0.17,0.08 -0.34,0.16 -0.51,0.24 -0.43,0.18 -0.82,0.36 -1.24,0.54l0 0c-105.49,47.13 -227.32,70.8 -352.95,70.8z" class="fil5"/><path d="M5771.02 4546.29c35.36,-63.18 62.76,-129.28 82.4,-197.25 191.64,-106.48 340.06,-215.41 442.76,-298.33 -65.69,109.58 -147.07,209.68 -241.74,295.54 -0.02,0 0,0 -0.02,0 -0.67,0.5 -1.34,1.15 -2.01,1.8 -0.15,0.17 -0.26,0.17 -0.37,0.33 -0.7,0.65 -1.41,1.31 -2.11,1.96l0 0c-0.61,0.49 -1.23,0.98 -1.83,1.63l0 0c-0.18,0 -0.35,0.16 -0.49,0.33l0 0c-0.49,0.49 -0.95,0.81 -1.41,1.31l0 0c-0.18,0.17 -0.35,0.33 -0.51,0.49l0 0c-0.57,0.49 -1.16,0.98 -1.75,1.47l0 0c-0.02,0 -0.04,0 -0.05,0l0 0c-83.74,74.25 -175.69,136.57 -272.87,190.7z" class="fil5"/><path d="M3368.74 3274.48c-1.93,-3.93 -3.97,-7.85 -6.13,-11.94 2.16,4.09 4.2,8.01 6.13,11.94zm-6.15 -11.94c-0.18,-0.33 -0.37,-0.65 -0.56,-0.98 0.18,0.33 0.37,0.65 0.56,0.98zm-0.57 -0.98c-0.2,-0.49 -0.38,-0.82 -0.56,-1.15 0.18,0.33 0.36,0.81 0.56,1.15zm-0.61 -1.15c-0.17,-0.33 -0.34,-0.65 -0.52,-0.98 0.18,0.33 0.36,0.66 0.52,0.98zm-0.59 -1.15c-0.18,-0.33 -0.34,-0.65 -0.52,-0.98 0.18,0.33 0.35,0.65 0.52,0.98zm-0.59 -0.98c-0.18,-0.33 -0.36,-0.66 -0.52,-0.98 0.18,0.33 0.34,0.65 0.52,0.98zm-0.61 -1.15c-0.16,-0.33 -0.34,-0.65 -0.5,-0.82 0.16,0.17 0.34,0.49 0.5,0.82zm-0.6 -1.15c-0.17,-0.17 -0.33,-0.49 -0.51,-0.82 0.18,0.33 0.34,0.65 0.51,0.82zm-0.61 -0.98c-0.17,-0.33 -0.33,-0.66 -0.48,-0.82 0.15,0.16 0.31,0.49 0.48,0.82zm-0.62 -1.15c-0.17,-0.17 -0.31,-0.49 -0.47,-0.81 0.16,0.32 0.31,0.65 0.47,0.81zm-0.62 -0.98c-0.15,-0.33 -0.31,-0.66 -0.46,-0.82 0.15,0.16 0.31,0.49 0.46,0.82zm-0.62 -1.15c-0.16,-0.33 -0.34,-0.66 -0.52,-0.82 0.18,0.16 0.36,0.49 0.52,0.82zm-0.62 -1.15c-0.21,-0.33 -0.43,-0.65 -0.64,-0.98 0.21,0.33 0.43,0.65 0.64,0.98zm-0.64 -0.98c-0.18,-0.33 -0.36,-0.66 -0.56,-0.98 0.19,0.32 0.37,0.65 0.56,0.98zm-0.69 -1.15c-0.15,-0.33 -0.31,-0.49 -0.44,-0.82 0.13,0.33 0.3,0.49 0.44,0.82zm-0.59 -0.98c-25.46,-42.52 -56.46,-74.25 -83.67,-96.98 27.18,22.57 58.16,54.3 83.67,96.98zm-83.69 -96.98c-0.08,-0.17 -0.18,-0.17 -0.28,-0.33 0.1,0.16 0.2,0.16 0.28,0.33z" class="fil9"/><path d="M3194.31 3584.26c58.61,-155.22 84.53,-315.66 35.36,-463.84 11.19,7.36 25.19,17.17 40.38,29.77 0.1,0.16 0.2,0.16 0.28,0.33 0,0 0,0 0.02,0 27.22,22.73 58.21,54.46 83.67,96.98 0.05,0 0.1,0.17 0.15,0.17 0.13,0.33 0.3,0.49 0.44,0.82 0.05,0 0.08,0.17 0.13,0.17 0.19,0.32 0.37,0.65 0.56,0.98l0 0c0.21,0.33 0.43,0.65 0.64,0.98 0.03,0.16 0.08,0.16 0.1,0.33 0.18,0.16 0.36,0.49 0.52,0.82 0.05,0.16 0.1,0.16 0.17,0.33 0.15,0.16 0.31,0.49 0.46,0.82 0.05,0 0.1,0.17 0.15,0.17 0.16,0.32 0.31,0.65 0.47,0.81 0.05,0.16 0.1,0.16 0.15,0.33 0.15,0.16 0.31,0.49 0.48,0.82 0.03,0 0.06,0.16 0.1,0.16 0.18,0.33 0.34,0.65 0.51,0.82 0.03,0.16 0.06,0.16 0.1,0.33 0.16,0.17 0.34,0.49 0.5,0.82 0.03,0 0.07,0.16 0.08,0.16 0.16,0.33 0.34,0.65 0.52,0.98 0.02,0 0.03,0 0.06,0 0.18,0.33 0.35,0.65 0.52,0.98 0.02,0 0.04,0.16 0.07,0.16 0.18,0.33 0.36,0.66 0.52,0.98 0.02,0 0.04,0 0.05,0 0.18,0.33 0.36,0.65 0.56,1.15 0,0 0.02,0 0.02,0 0.18,0.33 0.37,0.65 0.56,0.98 0.02,0 0.02,0 0.02,0 2.16,4.09 4.2,8.01 6.13,11.94 17.09,35 25.71,66.89 30.5,89.96 -27.38,88.81 -67.33,185.14 -117.53,277.06 -79.55,145.73 -184.88,280.5 -306.9,357.86 78.36,-123.98 163.72,-267.25 219.49,-415.1z" class="fil8"/><path d="M191.76 2046.68c106.57,156.52 127.83,146.71 223.51,324.66 83.86,155.87 82.52,235.52 184.92,324 0,0 60.53,52.33 144.24,84.56 166.8,64.28 391.76,-0.16 1049.55,-343.14 0,0 440.36,-229.8 651.47,-495.73 36.87,-46.45 78.7,-111.38 89.24,-196.92 10.84,-87.99 -21.79,-152.76 -39.83,-216.06 -45.57,-159.96 -91.15,-319.75 -136.73,-479.54 -41.07,-143.93 -95.86,-304.7 -231.71,-367.67 -163.69,-75.89 -349.34,29.76 -501.89,126.26 -338.31,213.77 -694.41,399.41 -1063.39,554.29 -309.38,130.03 -618.67,319.26 -369.39,685.3z" class="fil4"/><path d="M297.7 1796.76c-0.72,0 -1.43,0 -2.15,-0.17 -20.4,-0.16 -42.62,-4.09 -56.12,-19.46 -14.85,-16.85 -14.51,-42.36 -8.24,-64.11 15.61,-53.65 60.28,-93.23 105.03,-126.76 78,-58.22 162.78,-107.46 252.1,-146.38 77.46,-33.53 158.09,-59.37 237.11,-89.3 355.16,-134.11 673.54,-348.21 1010.97,-522.23 46.11,-23.72 94.26,-47.11 146.04,-49.89 2.28,-0.16 4.63,-0.16 7.05,-0.16 44.24,0 108.24,20.61 122.91,66.24 13.2,40.89 -26.3,92.24 -49.97,122.34 -63.93,81.45 -157.08,135.43 -247.67,182.04 -165.54,85.21 -336.73,159.3 -512.07,221.94 -91.31,32.55 -183.85,61.99 -273.25,99.44 -201.21,84.4 -384.03,208.37 -586.13,290.48 -46.61,18.97 -95.35,35.98 -145.61,35.98z" class="fil7"/><path d="M810.62 2797.72c-23.47,-3.76 -45.29,-9.81 -66.19,-17.83 -83.71,-32.22 -144.24,-84.56 -144.24,-84.56 -3.01,-2.62 -5.92,-5.24 -8.75,-7.69 2.83,2.45 5.74,5.07 8.75,7.69 0,0 60.53,52.33 144.24,84.56 20.9,8.02 42.72,14.07 66.19,17.83l0 0z" class="fil2"/><path d="M867.74 2801.98c-20.21,0 -39.15,-1.47 -57.11,-4.26l0 0c17.94,2.78 36.88,4.26 57.11,4.26 164.21,0.16 413.96,-98.13 926.24,-365.22l0 0 0 0c-512.29,267.09 -762.03,365.22 -926.24,365.22zm1022.19 -419.19c33.4,-19.63 73.65,-44.16 117.58,-72.45 -39.93,25.84 -79.18,49.88 -117.58,72.45z" class="fil10"/><path d="M190.97 2045.53c-0.09,-0.17 -0.19,-0.17 -0.28,-0.33 0.09,0.16 0.19,0.16 0.28,0.33zm-0.78 -1.14c-0.12,-0.17 -0.23,-0.33 -0.35,-0.5 0.11,0.17 0.25,0.33 0.35,0.5zm-0.8 -1.15c-0.11,-0.17 -0.22,-0.33 -0.33,-0.49 0.12,0.17 0.2,0.33 0.33,0.49zm-0.8 -1.15c-0.1,-0.16 -0.21,-0.32 -0.3,-0.49 0.09,0.17 0.19,0.33 0.3,0.49zm-0.88 -1.3c-0.07,-0.17 -0.13,-0.33 -0.19,-0.33 0.04,0 0.12,0.17 0.19,0.33z" class="fil2"/><path d="M867.74 2801.98c-20.23,0 -39.17,-1.47 -57.11,-4.26l0 0c-23.47,-3.76 -45.29,-9.81 -66.19,-17.83 -83.71,-32.22 -144.24,-84.56 -144.24,-84.56 -3.01,-2.62 -5.92,-5.24 -8.75,-7.69 -93.65,-85.54 -94.77,-165.03 -176.17,-316.31l0 0c-95.68,-177.95 -116.94,-168.14 -223.51,-324.66l0 0c-0.27,-0.33 -0.53,-0.65 -0.79,-1.15 -0.09,-0.17 -0.19,-0.17 -0.28,-0.33 -0.17,-0.33 -0.33,-0.49 -0.5,-0.81 -0.11,-0.17 -0.24,-0.33 -0.35,-0.5 -0.14,-0.16 -0.31,-0.49 -0.45,-0.65 -0.12,-0.17 -0.2,-0.33 -0.33,-0.49 -0.17,-0.33 -0.32,-0.49 -0.48,-0.66 -0.11,-0.16 -0.21,-0.32 -0.3,-0.49 -0.19,-0.33 -0.39,-0.65 -0.57,-0.81 -0.07,-0.17 -0.15,-0.33 -0.19,-0.33 -69.61,-104.35 -93.34,-194.14 -84.86,-272.32 18.35,103.53 106.19,137.39 204.25,137.39 82.44,0 172.12,-24.04 233.72,-51.03 17.5,-7.69 34.84,-15.7 52.06,-23.88 61.91,116.13 124.43,230.94 175.3,354.76 63.52,154.89 114,270.35 225.59,410.03 28.44,35.65 53.85,63.46 71.32,81.94 65.5,-25.68 131.02,-51.52 196.53,-77.2 -101.86,-162.08 -204.54,-339.7 -304.17,-533.51 -60.09,-116.78 -114.68,-230.94 -164.3,-341.67 15.21,-8.67 30.34,-17.5 45.48,-26.17 63.51,124.79 139,258.91 228.8,398.26 107.45,166.83 216.74,312.39 320.53,437.51 106.18,-41.22 212.36,-82.6 318.52,-123.98 -26.3,-30.26 -63.65,-74.91 -105.63,-131 -35.72,-47.76 -121.93,-164.7 -268.46,-452.07 -41.66,-81.61 -95.26,-189.89 -154.94,-319.59 14.08,-7.03 28.43,-14.23 43.08,-21.26 7.51,-3.6 14.98,-7.2 22.41,-10.63 79.68,171.07 182.52,361.62 315.79,560.17 83.59,124.63 168.24,236.17 250.33,335.13 44.06,-15.87 90.25,-34.35 138.02,-55.93 84.61,-38.11 159.52,-79 224.74,-119.4 -48.17,35.98 -99.96,72.29 -155.48,108.6 -2.91,1.96 -5.81,3.76 -8.69,5.73 -43.93,28.29 -84.18,52.82 -117.58,72.45 -32.63,19.13 -64.67,37.13 -95.94,53.97l0 0c-512.29,267.09 -762.03,365.38 -926.24,365.22zm-386.94 -812.87c-29.83,6.54 -59.68,13.25 -89.51,19.79 54.43,110.89 118.52,229.63 193.98,353.11 76.58,125.45 154.02,238.13 228.81,338.4 -51.42,-109.26 -102.81,-218.68 -154.2,-328.42 -59.89,-127.74 -119.59,-255.47 -179.08,-382.88z" class="fil5"/><path d="M2330.41 1345.52c-13.04,-40.72 -43.74,-133.46 -63.96,-190.87 -11.71,-33.37 -23.7,-66.57 -35.94,-99.77 -2.32,-6.21 -4.46,-12.76 -6.74,-19.3 16.26,-35.98 33.01,-91.59 17,-153.09 -4.48,-17.17 -16.59,-61.17 -57.89,-97.15 -38.52,-33.36 -80.75,-41.05 -98.11,-43.18 58.98,41.87 72.6,85.37 76.66,104.51 22.26,105 -90.23,202.32 -136.09,242.06 -47.17,40.73 -88.52,65.43 -159.22,97.32 -62.53,28.13 -125.97,54.13 -189.97,78.83 -181.37,69.83 -224.92,75.07 -339.2,119.07 -49.3,18.97 -124.13,49.23 -214.56,92.24 34.69,-8.5 86.91,-21.75 150.13,-39.09 104.28,-28.46 176.72,-51.19 215.84,-63.3 223.22,-68.37 312.78,-78.02 423.76,-116.61 35.67,68.2 71.21,138.69 106.43,211.48 52.8,109.26 101.14,215.89 145.45,319.75 -13.67,-49.39 -52.78,-189.4 -93.88,-316.65 -34.87,-108.11 -28.98,-87.01 -41.87,-123.48 -12.73,-36.15 -23.81,-74.09 -40.78,-108.44 -1.6,-3.27 -3.45,-6.54 -5.45,-9.81 10.78,-4.57 21.89,-9.48 33.55,-14.88 72.5,-33.37 120.75,-62.48 155.96,-99.77 9.35,18.81 19.73,37.29 26.91,54.46 42.72,102.71 68.04,182.2 76.41,213.11 25.12,92.57 73.16,243.2 146.07,460.08l15.31 -18.97 24.63 -30.58c-9.21,-34.02 -70.74,-261.53 -130.45,-447.98z" class="fil11"/><path d="M3353.91 994.04c63.76,-9.65 128.15,-19.3 188.24,-42.69 60.06,-23.39 116.35,-61.98 149.05,-117.43 26.26,-44.65 34.07,-105.82 1.07,-145.73 50.88,37.62 78.7,104.19 69.64,166.83 -9.06,62.48 -54.59,118.41 -114.03,140 -31.58,11.61 -65.64,13.74 -99.17,15.86 -118.92,7.36 -243.99,26.66 -362.68,20.94 46.79,-26.99 114.76,-29.93 167.87,-37.78z" class="fil11"/><path d="M4434.96 3350.05c0,0 0.02,0 0.03,0 92.12,-19.95 175.67,-43.02 246.36,-67.22 -70.7,24.2 -154.24,47.27 -246.39,67.22zm246.49 -67.22c0.54,-0.16 1.08,-0.33 1.62,-0.49 -0.54,0.16 -1.08,0.33 -1.62,0.49z" class="fil12"/><path d="M5464.72 5668.92c0.16,-0.02 0.34,-0.02 0.5,-0.02 -0.18,0 -0.34,0 -0.5,0.02zm2.2 -0.06c0.07,0 0.13,0 0.2,0 -0.08,0 -0.13,0 -0.2,0z" class="fil12"/><path d="M5442.96 5669.08c-182.01,0 -362.23,-36.31 -540.34,-74.5 -1.7,-0.36 -3.39,-0.7 -5.09,-1.08 1.7,0.38 3.39,0.72 5.09,1.08 178.11,38.19 358.33,74.5 540.34,74.5l0 0z" class="fil13"/></g></g></svg>